<svg xmlns="http://www.w3.org/2000/svg" viewBox="0 0 343.89 459.81"><defs><style>.cls-1{fill:#603813;stroke:#603813;}.cls-1,.cls-2,.cls-3,.cls-4,.cls-5{stroke-miterlimit:10;}.cls-1,.cls-3,.cls-4,.cls-5{stroke-width:0.75px;}.cls-2{fill:#c69c6d;stroke:#c69c6d;stroke-width:4px;}.cls-3{fill:#ff1d25;stroke:#ff1d25;}.cls-4{fill:#fbb03b;stroke:#fbb03b;}.cls-5{fill:#999;stroke:#999;}</style></defs><g id="Layer_2" data-name="Layer 2"><g id="Layer_2-2" data-name="Layer 2"><path class="cls-1" d="M25.45,360.86H323a24.24,24.24,0,0,1,24.24,24.24v11.74A24.24,24.24,0,0,1,323,421.08H23.88A28.55,28.55,0,0,1-4.66,392.53V391a30.11,30.11,0,0,1,30.11-30.11Z" transform="translate(-95.94 58.12) rotate(-15.1)"/><ellipse class="cls-2" cx="19.37" cy="431.76" rx="11.29" ry="17.46" transform="translate(-91.67 14.07) rotate(-12.32)"/><path class="cls-1" d="M297.94,394.07l-116,31,125.13,33.37a28.54,28.54,0,0,0,35-20.13l.41-1.5a30.21,30.21,0,0,0-21.23-36.92Z"/><path class="cls-2" d="M315.44,425.57c-3.76,8.62-2.94,17.74,2.27,21.79s12.49.34,16.25-8.27,2.58-18.88-2.63-22.92S319.2,417,315.44,425.57Z"/><path class="cls-1" d="M47.94,388.07l115-31L34,322.38A24.23,24.23,0,0,0,4.27,339.47L1.21,350.8A24.32,24.32,0,0,0,18.3,380.52l28.64,7.55Z"/><path class="cls-3" d="M155.19,302.73l-.32,0c-5.93-.54-11.93-1-17.52-3.2-9.73-3.87-17-12.35-25.72-18.07a204.68,204.68,0,0,0,6,21.92,123.28,123.28,0,0,0,11.56,24.23,116,116,0,0,0,9.42,12.85c1.74,2.11,3.57,4.15,5.36,6.21,1.58,1.82,2.43,3.93,4.51,5.3,2.38,1.56,5.35,2.18,8,3,3.09,1,6.33,1.85,9.6,1.6,4.41-.35,9.63-3,13.12-5.57a37,37,0,0,0,5.66-5.6,102.85,102.85,0,0,0,10.92-14.24,37.8,37.8,0,0,0,5.73-16.86c.19-.16,0,.32.17.17l-9.86,6.2c-2.21,1.39-4.55,2.82-7.15,2.93-5,.2-6.71-4-8-8-2.84-9.13-1.22-19.23-.67-28.57,1.15-19.63.76-39.88-6.4-58.46-.88-2.29-10.67-23.1-13.57-21.1-3.84,2.65-4.46,8.06-5.5,12.22a174.37,174.37,0,0,0-3.82,19.07,136.07,136.07,0,0,0,2.92,51.24c1.2,4.75,2.84,9,6.53,12.38A1.11,1.11,0,0,1,155.19,302.73Z"/><path class="cls-4" d="M65.12,327a6.71,6.71,0,0,1-1.47-2.09,33.23,33.23,0,0,0-1.89-3.26l-2-3.41-4.06-6.82c-2.11-3.54-4.22-7.07-6.29-10.64C41.91,287.9,36.2,274.91,30,261.37c8.68.65,17.92,0,26.6.68-8.31-10.19-10.67-24-10.66-37.17a126,126,0,0,1,6.72-40.36c5.68-16.66,17.47-32.32,20.45-49.67A163.91,163.91,0,0,0,102,186.11c-.65-.32.9-.82.25-1.14a169.1,169.1,0,0,1,24.31-84.2C141.9,75.5,165.7,51.5,191.65,37.36c-7.44,29.48-9.61,60.42-5,90.48a204.3,204.3,0,0,0,6.2,27.55c2.86,9.59,6.43,19,10,28.3,4.95,13,13.39,24.87,18.35,37.89,10.71-18.54,20.35-38.33,26.1-59,20.55,38.14,20.89,85.93-.86,123.4l17-16.07c3.87-4.35,9-8.62,12.84-13-1.18,1.33-.85,7.83-1.14,9.75Q274.32,272.4,273,278a139.75,139.75,0,0,1-6.56,20.95,130.64,130.64,0,0,1-9.8,19.58c-3.66,6-6.75,12.09-13.54,14.93s-13.78,4.7-20.77,6.75c-4.69,1.38-13,2.15-16.34,6,9.1-10.31,18.57-20.74,23.65-33.74s5.94-29.07-3.1-39.62l-5.87,11.65c-.2.39-.68.49-1.1.63s-.86.48-.75.89,1,0,.61-.21c-7.33,5.22-17.46,12-24.79,17.19a126.31,126.31,0,0,0-2.88-101.08c-5.89-12.32-13.77-23.6-19.68-35.91-9.89-20.6-17.69-43.27-15.46-66-15.22,22.29-23.07,49-26.47,75.72s-4,53.82-3.19,80.8a116.29,116.29,0,0,1-30.63-24.62c-4.89-5.8-9.43-12.27-14.32-18.06a170.32,170.32,0,0,0,35.24,128.57l-1.7-.28c-4.56-.78-9.1-1.72-13.6-2.79q-7-1.68-14-3.73t-13.68-4.39c-1.09-.38-2.19-.77-3.28-1.17a29.71,29.71,0,0,1-3.19-1.18A11.41,11.41,0,0,1,65.12,327Z"/><path class="cls-5" d="M98,100.61c-8.69-8-17.85-16.82-20.13-28.42-1.2-6.09-.35-12.4.8-18.5A191.36,191.36,0,0,1,97,.83c4,8.06,10.1,15.54,14.07,23.61a50,50,0,0,1,3.06,7.14c2.43,7.76,1,16.25-1.84,23.87s-6.93,14.71-10,22.23S96.51,92.62,98,100.61Z"/><path class="cls-5" d="M228.33,137.86c-5.07-4.83-10.42-10.16-11.75-17.17-.7-3.68-.2-7.49.47-11.18a118.85,118.85,0,0,1,10.68-31.94c2.31,4.87,5.9,9.4,8.21,14.27a30.59,30.59,0,0,1,1.79,4.31c1.41,4.69.56,9.82-1.08,14.43s-4,8.89-5.85,13.43S227.44,133,228.33,137.86Z"/></g></g></svg>