<svg xmlns="http://www.w3.org/2000/svg" viewBox="0 0 534.24 64.71"><defs><style>.cls-1{fill:#a3bcbf;}.cls-2{fill:#731b0e;}</style></defs><g id="Layer_2" data-name="Layer 2"><g id="Layer_2-2" data-name="Layer 2"><path class="cls-1" d="M.6,27.43C.43,24.58.23,22.31,0,20.6A21.35,21.35,0,0,0,4,22a14.46,14.46,0,0,0,3.08.39,6.36,6.36,0,0,0,2.78-.51,1.61,1.61,0,0,0,1-1.51,2,2,0,0,0-.1-.65,2.58,2.58,0,0,0-.38-.7,5.53,5.53,0,0,0-.8-.85L5.83,14.87C5,14.13,4.34,13.59,4,13.25a12.13,12.13,0,0,1-1.66-1.9,6.67,6.67,0,0,1-.86-1.79A6.77,6.77,0,0,1,1.2,7.63a6.87,6.87,0,0,1,.43-2.4A7.43,7.43,0,0,1,2.92,3,7.6,7.6,0,0,1,5.21,1.28a10.17,10.17,0,0,1,3-1A20.26,20.26,0,0,1,11.59,0,38.55,38.55,0,0,1,19,.78c0,.92.08,1.77.14,2.53s.18,2.12.38,4a17.72,17.72,0,0,0-3.36-1A13.81,13.81,0,0,0,13.49,6a5.2,5.2,0,0,0-2.59.58,1.66,1.66,0,0,0-1,1.44,2,2,0,0,0,.16.78,3.84,3.84,0,0,0,.6.89,10.56,10.56,0,0,0,1.16,1.12c.48.41,1.24,1,2.26,1.81l1.45,1.14q.63.53,1.38,1.26a14.91,14.91,0,0,1,1.28,1.47A8.7,8.7,0,0,1,19,17.84a5.65,5.65,0,0,1,.43,1.21,6,6,0,0,1,.14,1.31,7.27,7.27,0,0,1-.86,3.43,7.4,7.4,0,0,1-2.44,2.69A10.32,10.32,0,0,1,12.78,28a18.35,18.35,0,0,1-4,.42A46.15,46.15,0,0,1,.6,27.43Z"/><path class="cls-1" d="M29.59,27.85q1-9.74,1.19-21.42l-8.52.22.1-2.23q.09-1.77.12-3.9,5.68,0,13.25,0l4.94,0h4.81l2.6,0-.12,2c-.05,1-.09,1.92-.11,2.61s0,1.21,0,1.56c-2.85-.15-5.21-.22-7.06-.22h-1.4C39.16,8.78,39,11,38.9,13c-.15,2.86-.27,5.65-.35,8.34s-.12,4.88-.12,6.55l-4.24,0Z"/><path class="cls-1" d="M49.51,27.85c.33-3.45.58-6.33.73-8.65s.31-5.41.46-9.26.23-6.4.23-7.66l0-1.76q4.73,0,11.43,0c4.13,0,7.76,0,10.91,0l0,.66c0,.16,0,.74-.1,1.73L73,5.09c0,.47,0,.94,0,1.42-2.57-.11-4.74-.16-6.49-.16H62.57q-1,0-3.15.09l-.25,4.6c1.58,0,3.42.06,5.51.06q1.13,0,6-.14c-.13,1.71-.26,3.74-.38,6.11-2.31,0-4.08,0-5.32,0-1.84,0-3.91,0-6.19.14L58.53,22h2.3L65.05,22l4.14-.1c.61,0,1.64-.07,3.08-.16q-.24,3-.4,6.13-4.89,0-10.71,0l-8.81,0Z"/><path class="cls-1" d="M83.83,27.85l-.74-2.45L78.2,11.33,74.35.52c1.82,0,3.43,0,4.84,0,.87,0,2.23,0,4.08,0,.31,1.19.55,2.09.73,2.71.24.8.69,2.25,1.36,4.34l3,9.48c.29,1,.65,2.28,1.08,3.86l.92-2.3,7-15.3.41-1c.15-.36.4-1,.73-1.82,1.94,0,3.49,0,4.67,0,.73,0,2.19,0,4.36,0q-2,3.81-4.62,8.89L95.94,23.1c-.67,1.34-1.41,2.92-2.24,4.75-2.24,0-3.85,0-4.81,0S86.31,27.82,83.83,27.85Z"/><path class="cls-1" d="M107.42,27.85c.34-3.45.58-6.33.74-8.65s.3-5.41.46-9.26.23-6.4.23-7.66l0-1.76q4.73,0,11.43,0,6.18,0,10.91,0l0,.66c0,.16,0,.74-.1,1.73l-.12,2.18c0,.47,0,.94,0,1.42q-3.87-.16-6.49-.16h-3.89c-.68,0-1.73,0-3.16.09l-.24,4.6c1.58,0,3.41.06,5.51.06q1.11,0,6-.14c-.14,1.71-.27,3.74-.39,6.11-2.3,0-4.08,0-5.32,0-1.84,0-3.9,0-6.18.14L116.44,22h2.3L123,22l4.15-.1c.61,0,1.64-.07,3.08-.16-.16,2-.3,4-.4,6.13q-4.89,0-10.71,0l-8.81,0Z"/><path class="cls-1" d="M134.49,27.85l.4-4.21.78-14.25.22-5.75V.52c2.07,0,3.91,0,5.5,0,1.13,0,2.73,0,4.79,0l8.55,15.54,1.17,2.28q.22-3.36.47-9.43T156.6.52c1.64,0,3,0,3.94,0l3.92,0-.48,6-.9,16.57L163,27.85c-1.74,0-3.36,0-4.87,0-1.25,0-3,0-5.21,0-.69-1.31-1.2-2.26-1.54-2.85L148,19.3q-1.65-2.81-3-5.37c-.62-1.08-1.25-2.27-1.9-3.57l-.43,9.5-.21,8c-1.65,0-2.91,0-3.78,0S136.5,27.82,134.49,27.85Z"/><path class="cls-2" d="M178.45,27.85l.4-5.13.52-10,.22-7.08c0-.77,0-1.53,0-2.29,0-.57,0-1.51,0-2.82,1.76,0,3.17.06,4.24.06s2.44,0,4.23-.09S191.36.4,192.6.4a16.81,16.81,0,0,1,4,.34,7.19,7.19,0,0,1,2.33,1.07,6.82,6.82,0,0,1,1.72,1.71,7.18,7.18,0,0,1,1,2.24A9.92,9.92,0,0,1,202,8.31a9.58,9.58,0,0,1-1.3,4.9A8.18,8.18,0,0,1,197,16.54a12.44,12.44,0,0,1-5.3,1.1,15.37,15.37,0,0,1-2.51-.24c-.1-.62-.3-1.53-.6-2.75s-.53-2.11-.72-2.7a9.21,9.21,0,0,0,1.85.18,4.14,4.14,0,0,0,3-1,3.2,3.2,0,0,0,1-2.37,3,3,0,0,0-.22-1.21,1.93,1.93,0,0,0-.7-.87,2.47,2.47,0,0,0-1.06-.44,7.54,7.54,0,0,0-1.32-.1c-.48,0-1,0-1.51,0l-1.68.12c-.17,2.57-.3,5.44-.39,8.58-.18,5.74-.26,9.19-.26,10.33v2.61l-4,0Z"/><path class="cls-2" d="M201,27.85,202.62,25,213,5.47l1.11-2.19c.32-.64.76-1.56,1.34-2.76,2.35,0,4.06,0,5.14,0,1.88,0,3.63,0,5.23,0l2.92,8.35,5.94,16.05,1.16,2.93-4.21,0c-1.12,0-2.77,0-4.95,0q-.87-3.3-2.54-7.77H214q-1.74,3.53-3.6,7.77l-4.57,0C204.85,27.81,203.21,27.82,201,27.85Zm15.5-13.6h6.21c-1.54-4.7-2.39-7.29-2.53-7.77-.88,2-1.63,3.56-2.24,4.82Z"/><path class="cls-2" d="M244,27.85q1-9.74,1.19-21.42l-8.52.22.1-2.23q.07-1.77.12-3.9,5.69,0,13.25,0l4.94,0h4.81l2.6,0-.12,2c-.05,1-.09,1.92-.11,2.61s0,1.21,0,1.56c-2.85-.15-5.21-.22-7.06-.22h-1.4q-.3,3.52-.47,6.53c-.14,2.86-.26,5.65-.34,8.34s-.12,4.88-.12,6.55l-4.24,0Z"/><path class="cls-2" d="M263.9,27.85q.38-3.53.6-6.35c.15-1.88.27-4.06.38-6.55s.19-5.1.24-7.85.08-4.95.08-6.58q2.51.06,4.05.06t3.9-.09c1.53-.06,3-.09,4.48-.09,1.71,0,3.23.07,4.57.2a11.17,11.17,0,0,1,2.73.58A8,8,0,0,1,287,2.25a6.45,6.45,0,0,1,1.4,1.41,5.91,5.91,0,0,1,.87,1.84,7.79,7.79,0,0,1,.31,2.25,8.85,8.85,0,0,1-.34,2.51,7.35,7.35,0,0,1-1.07,2.2,7.1,7.1,0,0,1-1.84,1.78,16.9,16.9,0,0,1-3.11,1.54l1,2.54c.29.71.6,1.43.94,2.16l2.68,5.87c.12.25.33.75.64,1.5-2.2,0-3.68,0-4.44,0-1,0-2.53,0-4.72,0-.22-.7-.6-2-1.16-3.87-.23-.78-.42-1.39-.58-1.82-.33-.95-.8-2.27-1.43-4l-2.06-5.67a11.09,11.09,0,0,0,2.12.2,7.44,7.44,0,0,0,2.65-.44,3.5,3.5,0,0,0,1.8-1.36A3.42,3.42,0,0,0,281.31,9a2.52,2.52,0,0,0-.46-1.51,2.65,2.65,0,0,0-1.45-1,10.46,10.46,0,0,0-3-.32l-1.45,0-1.75,0c-.17,2.73-.33,6.07-.46,10s-.21,7.8-.25,11.59l-4.35,0C267.31,27.81,265.92,27.82,263.9,27.85Z"/><path class="cls-2" d="M292.75,27.85q1.14-16.08,1.15-24.75l0-2.58c2.34,0,3.9,0,4.69,0l4.31,0c-.25,3-.44,5.85-.59,8.53q-.29,5.61-.4,10.48t-.12,8.32l-4.1,0Z"/><path class="cls-2" d="M330.34,21.18c-.16.79-.35,1.88-.58,3.28s-.38,2.5-.46,3.27a53.29,53.29,0,0,1-7.65.64,21.55,21.55,0,0,1-6-.81,14.82,14.82,0,0,1-5.13-2.67,10.53,10.53,0,0,1-3.33-4.35,15,15,0,0,1-1-5.61,15.22,15.22,0,0,1,1.35-6.51,12.87,12.87,0,0,1,3.88-4.83A16.19,16.19,0,0,1,317,.83,23.59,23.59,0,0,1,323.19,0a43.65,43.65,0,0,1,7.33.76l0,1.68c0,.74.07,1.54.12,2.42l.14,2.29A38,38,0,0,0,327,6.39a18.86,18.86,0,0,0-2.69-.2,10.73,10.73,0,0,0-4.87,1.08,8.18,8.18,0,0,0-3.4,3.14A8.68,8.68,0,0,0,314.83,15a7.08,7.08,0,0,0,1,3.92,6.92,6.92,0,0,0,2.81,2.52,9.72,9.72,0,0,0,4.37.89,21.9,21.9,0,0,0,3.1-.23A36.61,36.61,0,0,0,330.34,21.18Z"/><path class="cls-2" d="M334.15,27.85q.38-3.75.54-6.21.3-4.37.64-12c.17-3.52.25-6,.25-7.45V.52c2.22,0,3.76,0,4.6,0l4.32,0-.95,15-.48,12.37-4.34,0Zm10-14.43,4.48-6.1,3.62-5.08L353.4.52c2.49,0,4.17,0,5.05,0l4.78,0-8.44,10.66-1.58,2.14,1.48,2.37,8.36,12.16-4.92,0c-1.07,0-2.88,0-5.43,0Q350.12,23,344.18,13.42Z"/><path class="cls-1" d="M375.87,27.85c.28-2.94.46-5.25.56-6.93.13-2.3.26-5.44.39-9.45S377,4.64,377,3c0-.58,0-1.41,0-2.48,1.77,0,3.18.06,4.22.06,1.46,0,3.15,0,5.09-.09s3.59-.09,5-.09a31.7,31.7,0,0,1,3.56.14,8.84,8.84,0,0,1,2.46.64,6,6,0,0,1,1.75,1.14,5.78,5.78,0,0,1,1.22,1.92,7.59,7.59,0,0,1,.5,2.75,8.2,8.2,0,0,1-.29,2.18,6.63,6.63,0,0,1-.82,1.85,5.82,5.82,0,0,1-1.19,1.35,6.42,6.42,0,0,1-1.29.84,11.32,11.32,0,0,1-1.69.6,10.91,10.91,0,0,1,1.7.41,6.45,6.45,0,0,1,1.37.74,5.86,5.86,0,0,1,1.31,1.32,5.62,5.62,0,0,1,.87,1.79,7.54,7.54,0,0,1,.29,2.09,8.19,8.19,0,0,1-.5,2.86,6.67,6.67,0,0,1-1.4,2.3,6.51,6.51,0,0,1-2,1.41,10,10,0,0,1-2.51.8c-.69.1-1.95.18-3.79.24s-3.78.08-5.84.08l-5.26,0Zm8.46-5.49h3.84a10.15,10.15,0,0,0,2.25-.18,3.5,3.5,0,0,0,1.34-.58,2.45,2.45,0,0,0,.73-1,3.4,3.4,0,0,0,.27-1.38,2.79,2.79,0,0,0-.22-1.16,2,2,0,0,0-.66-.84,2.69,2.69,0,0,0-1.08-.49,9.61,9.61,0,0,0-2-.15h-4.23Zm.46-11.19h2.84a18.61,18.61,0,0,0,2-.07,6.56,6.56,0,0,0,1.15-.25,2.33,2.33,0,0,0,1-.6,2.38,2.38,0,0,0,.58-.94,3.15,3.15,0,0,0,.17-1A2.41,2.41,0,0,0,392.15,7,2,2,0,0,0,391,6.09a7.41,7.41,0,0,0-2.38-.28H385Z"/><path class="cls-1" d="M405,27.85q1.14-16.08,1.15-24.75l0-2.58c2.34,0,3.9,0,4.69,0l4.3,0c-.24,3-.43,5.85-.58,8.53q-.28,5.61-.4,10.48T414,27.85l-4.1,0Z"/><path class="cls-1" d="M418.65,27.43c-.18-2.85-.38-5.12-.6-6.83a21.1,21.1,0,0,0,4,1.39,14.46,14.46,0,0,0,3.08.39,6.36,6.36,0,0,0,2.78-.51,1.63,1.63,0,0,0,1-1.51,2,2,0,0,0-.1-.65,2.89,2.89,0,0,0-.38-.7,5.18,5.18,0,0,0-.81-.85l-3.77-3.29c-.88-.74-1.5-1.28-1.84-1.62a12.13,12.13,0,0,1-1.66-1.9,6.67,6.67,0,0,1-.86-1.79,6.77,6.77,0,0,1-.27-1.93,6.87,6.87,0,0,1,.43-2.4A7.43,7.43,0,0,1,421,3a7.43,7.43,0,0,1,2.28-1.76,10.23,10.23,0,0,1,3.05-1A20.26,20.26,0,0,1,429.64,0,38.63,38.63,0,0,1,437,.78c0,.92.08,1.77.14,2.53s.18,2.12.38,4a17.58,17.58,0,0,0-3.37-1A13.72,13.72,0,0,0,431.54,6a5.2,5.2,0,0,0-2.59.58,1.66,1.66,0,0,0-1,1.44,2,2,0,0,0,.16.78,3.29,3.29,0,0,0,.6.89,10.56,10.56,0,0,0,1.16,1.12c.48.41,1.23,1,2.26,1.81l1.44,1.14a18.45,18.45,0,0,1,1.38,1.26,13.85,13.85,0,0,1,1.29,1.47,8.7,8.7,0,0,1,.83,1.32,6.25,6.25,0,0,1,.43,1.21,6,6,0,0,1,.14,1.31,7.35,7.35,0,0,1-3.31,6.12A10.19,10.19,0,0,1,430.83,28a18.35,18.35,0,0,1-4,.42A46,46,0,0,1,418.65,27.43Z"/><path class="cls-1" d="M441.63,27.85l.78-10.93.35-8,.1-3.54c0-1,0-2,0-3l0-1.92c2.1,0,3.67,0,4.71,0,.82,0,2.23,0,4.25,0q-.48,5.74-.61,10.15h10.89c.07-1.1.13-2.58.19-4.44s.09-3.14.09-3.82c0-.37,0-1,0-1.89l4.74,0,4.2,0q-.72,10.29-.91,15.31t-.2,12l-4.37,0-4.69,0q.5-4.77.68-11.09h-10.9l-.34,11.09-4.65,0Z"/><path class="cls-1" d="M491.64,0a22.21,22.21,0,0,1,6.17.86A14,14,0,0,1,503,3.61,12.26,12.26,0,0,1,506.31,8a13.64,13.64,0,0,1,1.11,5.66,15.42,15.42,0,0,1-1.22,6.18,12.86,12.86,0,0,1-3.49,4.77,14.35,14.35,0,0,1-5.44,2.88,24,24,0,0,1-6.59.91,23.55,23.55,0,0,1-6.49-.89,14,14,0,0,1-5.39-2.89,11.35,11.35,0,0,1-3.26-4.43,14.74,14.74,0,0,1-1-5.43,14.37,14.37,0,0,1,2-7.69,13.51,13.51,0,0,1,6-5.18A21.05,21.05,0,0,1,491.64,0Zm-.36,6a7.78,7.78,0,0,0-4.16,1.13,7.46,7.46,0,0,0-2.87,3.14,9.51,9.51,0,0,0-1,4.31,8.32,8.32,0,0,0,.91,3.89,6.42,6.42,0,0,0,2.78,2.75,8.26,8.26,0,0,0,3.94,1A7.75,7.75,0,0,0,495,21.13,7.2,7.2,0,0,0,497.78,18a9.7,9.7,0,0,0,1-4.22,8.78,8.78,0,0,0-.9-3.95A6.48,6.48,0,0,0,495.2,7,7.7,7.7,0,0,0,491.28,6Z"/><path class="cls-1" d="M510.7,27.85l.4-5.13.51-10,.22-7.08c0-.77,0-1.53,0-2.29,0-.57,0-1.51,0-2.82,1.76,0,3.18.06,4.25.06s2.43,0,4.22-.09S523.61.4,524.85.4a16.71,16.71,0,0,1,4,.34,7.34,7.34,0,0,1,2.34,1.07,7,7,0,0,1,1.72,1.71,7.4,7.4,0,0,1,1,2.24,9.5,9.5,0,0,1,.34,2.55,9.48,9.48,0,0,1-1.3,4.9,8.2,8.2,0,0,1-3.66,3.33,12.51,12.51,0,0,1-5.31,1.1,15.26,15.26,0,0,1-2.5-.24c-.11-.62-.31-1.53-.6-2.75s-.54-2.11-.72-2.7a9.11,9.11,0,0,0,1.84.18,4.13,4.13,0,0,0,3-1,3.2,3.2,0,0,0,1-2.37,3,3,0,0,0-.22-1.21,1.87,1.87,0,0,0-.7-.87A2.42,2.42,0,0,0,524,6.27a7.54,7.54,0,0,0-1.32-.1c-.48,0-1,0-1.5,0l-1.68.12c-.18,2.57-.31,5.44-.4,8.58-.17,5.74-.26,9.19-.26,10.33v2.61l-4,0Z"/><path class="cls-1" d="M4.32,52.88v5.65l.35.82h.51l.37-.84v-10a1,1,0,0,1,.18-.61.55.55,0,0,1,.44-.26.53.53,0,0,1,.43.26,1,1,0,0,1,.18.59V58.78a1.31,1.31,0,0,1-.16.53l-.56,1.31a.56.56,0,0,1-.53.43H4.39q-.54,0-.69-.69-.17.69-.66.69H2a.7.7,0,0,1-.67-.47L.78,59.35a1.39,1.39,0,0,1-.14-.57V48.49a1,1,0,0,1,.18-.61.54.54,0,0,1,.44-.26.5.5,0,0,1,.41.26,1,1,0,0,1,.18.61V58.55l.35.8h.52l.39-.84V52.88a1,1,0,0,1,.17-.6A.51.51,0,0,1,3.71,52a.5.5,0,0,1,.43.25A1,1,0,0,1,4.32,52.88Z"/><path class="cls-1" d="M15.7,54.49v2.06a1,1,0,0,1-.18.59.51.51,0,0,1-.43.25H10.8v.5a1.09,1.09,0,0,0,.27.74l.35.41a.8.8,0,0,0,.55.31h3.12a.53.53,0,0,1,.43.25,1,1,0,0,1,.18.6,1,1,0,0,1-.19.6.51.51,0,0,1-.42.25h-3.2a1.4,1.4,0,0,1-.67-.19,1.69,1.69,0,0,1-.51-.38l-.54-.67A2.34,2.34,0,0,1,9.74,59a3.06,3.06,0,0,1-.17-.93V54.2a3,3,0,0,1,.19-.9,2.49,2.49,0,0,1,.46-.88l.51-.55a1.45,1.45,0,0,1,1.1-.57h1.71a1.56,1.56,0,0,1,1.21.75l.46.6A2.93,2.93,0,0,1,15.7,54.49Zm-4.88-.13v1.32H14.5V54.49a1.1,1.1,0,0,0-.21-.72l-.35-.44a.74.74,0,0,0-.49-.31H11.92a.66.66,0,0,0-.51.27l-.36.42A.88.88,0,0,0,10.82,54.36Z"/><path class="cls-1" d="M19.77,48.47v4l.53-.59a1.43,1.43,0,0,1,1.05-.59h1.11a1.39,1.39,0,0,1,1.09.59l.58.69a2.35,2.35,0,0,1,.39.84,3.7,3.7,0,0,1,.16,1.07v3.44a3.49,3.49,0,0,1-.15,1,2.09,2.09,0,0,1-.33.76l-.53.69a1.64,1.64,0,0,1-.57.49,1.32,1.32,0,0,1-.64.22h-1c-.5,0-1.06-.39-1.65-1.18v.33a1,1,0,0,1-.18.6.49.49,0,0,1-.86,0,1,1,0,0,1-.18-.6V48.47a1,1,0,0,1,.18-.6.55.55,0,0,1,.43-.25.53.53,0,0,1,.43.25A1,1,0,0,1,19.77,48.47ZM22.37,53h-.84a.55.55,0,0,0-.46.19L20,54.49a1.26,1.26,0,0,0-.21.79V57.2a1.12,1.12,0,0,0,.23.71l1,1.15a.58.58,0,0,0,.44.27h1a.45.45,0,0,0,.36-.18l.49-.6a.81.81,0,0,0,.19-.58V54.39a.92.92,0,0,0-.19-.64l-.44-.52A.62.62,0,0,0,22.37,53Z"/><path class="cls-1" d="M37,47.62h2.4a1.38,1.38,0,0,1,.91.43,2.43,2.43,0,0,1,.66,1l1.2,3.39a5.71,5.71,0,0,1,.34,1.92,5.3,5.3,0,0,1-.37,1.91l-1.2,3.36a2.53,2.53,0,0,1-.67,1,1.41,1.41,0,0,1-1,.39H37a.5.5,0,0,1-.43-.25,1,1,0,0,1-.18-.6,1,1,0,0,1,.18-.61.51.51,0,0,1,.43-.26h.63v-10H37a.52.52,0,0,1-.43-.26,1,1,0,0,1-.18-.61,1,1,0,0,1,.18-.59A.52.52,0,0,1,37,47.62Zm1.84,1.72v10h.42c.27,0,.47-.18.61-.55l1.19-3.34a3.54,3.54,0,0,0,.23-1.1,3,3,0,0,0-.18-1l-1.24-3.45a.67.67,0,0,0-.64-.52Z"/><path class="cls-1" d="M51.45,54.49v2.06a1,1,0,0,1-.18.59.52.52,0,0,1-.43.25H46.55v.5a1.09,1.09,0,0,0,.27.74l.35.41a.77.77,0,0,0,.55.31h3.12a.55.55,0,0,1,.43.25,1.07,1.07,0,0,1,0,1.2.51.51,0,0,1-.42.25h-3.2a1.37,1.37,0,0,1-.67-.19,1.75,1.75,0,0,1-.52-.38l-.54-.67a2.17,2.17,0,0,1-.42-.79,3.06,3.06,0,0,1-.17-.93V54.2a3.2,3.2,0,0,1,.18-.9,2.5,2.5,0,0,1,.47-.88l.51-.55a1.45,1.45,0,0,1,1.1-.57h1.71a1.58,1.58,0,0,1,1.21.75l.46.6A3,3,0,0,1,51.45,54.49Zm-4.89-.13v1.32h3.69V54.49a1.1,1.1,0,0,0-.21-.72l-.36-.44a.7.7,0,0,0-.49-.31H47.67a.66.66,0,0,0-.51.27l-.36.42A.88.88,0,0,0,46.56,54.36Z"/><path class="cls-1" d="M60.39,52.15v1.62l-2.11,6.69c-.13.39-.31.59-.53.59H57c-.28,0-.49-.2-.62-.62l-2.09-6.64V52.15a1,1,0,0,1,.17-.6.49.49,0,0,1,.86,0,1,1,0,0,1,.18.6v1.3l1.85,5.82,1.84-5.84V52.15a1,1,0,0,1,.18-.6.53.53,0,0,1,.44-.25.51.51,0,0,1,.43.25A1,1,0,0,1,60.39,52.15Z"/><path class="cls-1" d="M69.32,54.49v2.06a1,1,0,0,1-.18.59.51.51,0,0,1-.43.25H64.42v.5a1.09,1.09,0,0,0,.27.74L65,59a.8.8,0,0,0,.55.31h3.12a.53.53,0,0,1,.43.25,1.09,1.09,0,0,1,0,1.2.54.54,0,0,1-.43.25h-3.2a1.4,1.4,0,0,1-.67-.19,1.69,1.69,0,0,1-.51-.38l-.54-.67a2.34,2.34,0,0,1-.43-.79,3.06,3.06,0,0,1-.17-.93V54.2a3,3,0,0,1,.19-.9,2.49,2.49,0,0,1,.46-.88l.51-.55a1.45,1.45,0,0,1,1.11-.57h1.7a1.56,1.56,0,0,1,1.21.75l.46.6A2.93,2.93,0,0,1,69.32,54.49Zm-4.88-.13v1.32h3.68V54.49a1.1,1.1,0,0,0-.21-.72l-.35-.44a.74.74,0,0,0-.49-.31H65.54a.66.66,0,0,0-.51.27l-.36.42A.92.92,0,0,0,64.44,54.36Z"/><path class="cls-1" d="M77,61.05H73.37a.5.5,0,0,1-.43-.26,1.09,1.09,0,0,1-.17-.61,1,1,0,0,1,.17-.59.52.52,0,0,1,.43-.26h1.22v-10H73.36a.51.51,0,0,1-.43-.25,1,1,0,0,1-.18-.6,1,1,0,0,1,.18-.6.53.53,0,0,1,.43-.25h1.85a.52.52,0,0,1,.42.26,1,1,0,0,1,.19.59V59.33H77a.52.52,0,0,1,.43.26,1,1,0,0,1,.18.59,1,1,0,0,1-.18.61A.5.5,0,0,1,77,61.05Z"/><path class="cls-1" d="M87.19,54.36V58a3.27,3.27,0,0,1-.77,2.11,2.09,2.09,0,0,1-1.58,1H83.42a2.07,2.07,0,0,1-1.59-1,3.37,3.37,0,0,1-.76-2.1V54.36a3.36,3.36,0,0,1,.74-2.09,2,2,0,0,1,1.61-1h1.42a2,2,0,0,1,1.58.95A3.33,3.33,0,0,1,87.19,54.36Zm-4.9.07v3.44a1.15,1.15,0,0,0,.24.74l.46.54a.52.52,0,0,0,.43.18h1.4a.72.72,0,0,0,.57-.31l.37-.45a1,1,0,0,0,.22-.68V54.45a1.06,1.06,0,0,0-.22-.74l-.43-.48a.65.65,0,0,0-.51-.25H83.57a.78.78,0,0,0-.64.27l-.41.5A1,1,0,0,0,82.29,54.43Z"/><path class="cls-1" d="M91.25,60.08v3.76a1.05,1.05,0,0,1-.18.62.51.51,0,0,1-.43.25.54.54,0,0,1-.44-.25,1.05,1.05,0,0,1-.18-.62V51.74a1,1,0,0,1,.18-.6.5.5,0,0,1,.87,0,1,1,0,0,1,.18.6v.54c.58-.91,1.16-1.37,1.74-1.37h.28a1.53,1.53,0,0,1,1.18.66l1,1.23a3.09,3.09,0,0,1,.67,2.05V57.5a3.24,3.24,0,0,1-.71,2.11l-1,1.19a1.5,1.5,0,0,1-1.24.63h-.26a1.42,1.42,0,0,1-1.2-.69ZM93,59.71h.31a.69.69,0,0,0,.48-.32l.94-1.16a1,1,0,0,0,.24-.71V54.78a1.08,1.08,0,0,0-.27-.72l-1-1.22a.49.49,0,0,0-.37-.22h-.35c-.14,0-.32.16-.53.47l-.91,1.25a1.3,1.3,0,0,0-.23.75v2.17a1.28,1.28,0,0,0,.26.77l.88,1.22C92.6,59.56,92.79,59.71,93,59.71Z"/><path class="cls-1" d="M105.07,54.49v2.06a1,1,0,0,1-.18.59.52.52,0,0,1-.43.25h-4.29v.5a1.09,1.09,0,0,0,.27.74l.35.41a.79.79,0,0,0,.55.31h3.12a.55.55,0,0,1,.43.25,1,1,0,0,1,.18.6,1,1,0,0,1-.19.6.51.51,0,0,1-.42.25h-3.2a1.4,1.4,0,0,1-.67-.19,1.69,1.69,0,0,1-.51-.38l-.55-.67a2.33,2.33,0,0,1-.42-.79,3.06,3.06,0,0,1-.17-.93V54.2a3.2,3.2,0,0,1,.18-.9,2.5,2.5,0,0,1,.47-.88l.51-.55a1.45,1.45,0,0,1,1.1-.57h1.71a1.56,1.56,0,0,1,1.21.75l.46.6A3,3,0,0,1,105.07,54.49Zm-4.89-.13v1.32h3.69V54.49a1.1,1.1,0,0,0-.21-.72l-.36-.44a.7.7,0,0,0-.49-.31h-1.52a.66.66,0,0,0-.51.27l-.36.42A.88.88,0,0,0,100.18,54.36Z"/><path class="cls-1" d="M107.89,60.2V52.15a1,1,0,0,1,.18-.61.52.52,0,0,1,.43-.26.53.53,0,0,1,.43.25,1.05,1.05,0,0,1,.18.62v1.06l1-1.18a1.62,1.62,0,0,1,1.19-.73h.89a1.57,1.57,0,0,1,1.29.75,3,3,0,0,1,.53,1.8v.45a1,1,0,0,1-.17.62.51.51,0,0,1-.43.25.5.5,0,0,1-.43-.25,1,1,0,0,1-.18-.6v-.47a1,1,0,0,0-.18-.6.5.5,0,0,0-.43-.25h-.78a.83.83,0,0,0-.57.37l-1.72,2.09V60.2a1,1,0,0,1-.19.6.49.49,0,0,1-.85,0A1,1,0,0,1,107.89,60.2Z"/><path class="cls-2" d="M131.86,49.1l-4.93,11.69a.39.39,0,0,1-.37.26.55.55,0,0,1-.44-.23.81.81,0,0,1-.21-.58,1.82,1.82,0,0,1,.14-.66L131,47.9a.4.4,0,0,1,.38-.28.6.6,0,0,1,.43.22.8.8,0,0,1,.21.57A1.79,1.79,0,0,1,131.86,49.1Z"/><path class="cls-2" d="M140.79,49.1l-4.93,11.69a.37.37,0,0,1-.36.26.59.59,0,0,1-.45-.23.85.85,0,0,1-.2-.58,1.82,1.82,0,0,1,.14-.66l4.93-11.68a.41.41,0,0,1,.38-.28.62.62,0,0,1,.44.22.8.8,0,0,1,.2.57A1.79,1.79,0,0,1,140.79,49.1Z"/><path class="cls-1" d="M153.17,47.62h2.4a1.4,1.4,0,0,1,.91.43,2.41,2.41,0,0,1,.65,1l1.2,3.39a5.41,5.41,0,0,1,0,3.83l-1.2,3.36a2.53,2.53,0,0,1-.67,1,1.41,1.41,0,0,1-1,.39h-2.32a.52.52,0,0,1-.43-.25,1.08,1.08,0,0,1-.17-.6,1.12,1.12,0,0,1,.17-.61.53.53,0,0,1,.43-.26h.64v-10h-.62a.52.52,0,0,1-.43-.26,1,1,0,0,1-.18-.61,1,1,0,0,1,.18-.59A.52.52,0,0,1,153.17,47.62ZM155,49.34v10h.43c.27,0,.47-.18.6-.55l1.2-3.34a3.54,3.54,0,0,0,.23-1.1,3,3,0,0,0-.18-1L156,49.86a.67.67,0,0,0-.64-.52Z"/><path class="cls-1" d="M163.32,54.93h2.38a2.06,2.06,0,0,1,.57.12l0-1.2a1,1,0,0,0-.18-.6.5.5,0,0,0-.43-.25h-2.31a.53.53,0,0,1-.42-.25,1,1,0,0,1-.18-.6,1,1,0,0,1,.17-.6.52.52,0,0,1,.43-.25h2.31a1.58,1.58,0,0,1,1.29.74,3.18,3.18,0,0,1,.55,1.81l.15,6.35a1,1,0,0,1-.18.6.51.51,0,0,1-.43.25.53.53,0,0,1-.44-.25,1,1,0,0,1-.18-.6l-1,.85h-2.06a1.57,1.57,0,0,1-1.3-.75,3,3,0,0,1-.54-1.81v-1a3,3,0,0,1,.54-1.82A1.57,1.57,0,0,1,163.32,54.93Zm3,3.3,0-.71a1,1,0,0,0-.18-.61.52.52,0,0,0-.43-.24h-2.39a.52.52,0,0,0-.43.24,1,1,0,0,0-.18.61v.94a1,1,0,0,0,.18.6.52.52,0,0,0,.43.25H165Z"/><path class="cls-1" d="M174.71,61.05H173.5a1.59,1.59,0,0,1-1.3-.75,3,3,0,0,1-.54-1.79V53H171a.52.52,0,0,1-.43-.24,1,1,0,0,1-.18-.61,1,1,0,0,1,.18-.6.51.51,0,0,1,.43-.25h.64V49.22a1,1,0,0,1,.17-.6.52.52,0,0,1,.43-.25.56.56,0,0,1,.43.25,1,1,0,0,1,.18.6V51.3h2.44a.53.53,0,0,1,.43.25,1,1,0,0,1,.18.6,1,1,0,0,1-.18.6.51.51,0,0,1-.43.25h-2.45v5.51a1,1,0,0,0,.18.59.53.53,0,0,0,.44.25h1.18c.32,0,.54-.24.65-.73s.31-.73.61-.73a.51.51,0,0,1,.44.25,1.08,1.08,0,0,1,.17.62,2.76,2.76,0,0,1-.52,1.53A1.53,1.53,0,0,1,174.71,61.05Z"/><path class="cls-1" d="M181.2,54.93h2.38a2,2,0,0,1,.56.12l0-1.2a1,1,0,0,0-.17-.6.51.51,0,0,0-.43-.25h-2.31a.53.53,0,0,1-.43-.25,1,1,0,0,1-.18-.6,1,1,0,0,1,.18-.6.51.51,0,0,1,.43-.25h2.31a1.55,1.55,0,0,1,1.28.74,3.11,3.11,0,0,1,.55,1.81l.15,6.35a.91.91,0,0,1-.18.6.51.51,0,0,1-.42.25.51.51,0,0,1-.44-.25,1,1,0,0,1-.18-.6l-1,.85H181.2a1.57,1.57,0,0,1-1.31-.75,3.05,3.05,0,0,1-.53-1.81v-1a3,3,0,0,1,.54-1.82A1.57,1.57,0,0,1,181.2,54.93Zm3,3.3,0-.71a1,1,0,0,0-.18-.61.51.51,0,0,0-.42-.24h-2.4a.52.52,0,0,0-.43.24,1,1,0,0,0-.18.61v.94a1,1,0,0,0,.19.6.51.51,0,0,0,.42.25h1.72Z"/><path class="cls-1" d="M189.57,48.47v4l.53-.59a1.43,1.43,0,0,1,1.05-.59h1.11a1.39,1.39,0,0,1,1.09.59l.58.69a2.35,2.35,0,0,1,.39.84,3.7,3.7,0,0,1,.16,1.07v3.44a3.49,3.49,0,0,1-.15,1,2.09,2.09,0,0,1-.33.76l-.53.69a1.64,1.64,0,0,1-.57.49,1.32,1.32,0,0,1-.64.22h-1c-.51,0-1.06-.39-1.65-1.18v.33a1,1,0,0,1-.18.6.49.49,0,0,1-.86,0,1,1,0,0,1-.18-.6V48.47a1,1,0,0,1,.18-.6.49.49,0,0,1,.86,0A1,1,0,0,1,189.57,48.47Zm2.6,4.53h-.84a.55.55,0,0,0-.46.19l-1.1,1.3a1.26,1.26,0,0,0-.2.79V57.2a1.06,1.06,0,0,0,.23.71l1,1.15a.58.58,0,0,0,.44.27h1a.45.45,0,0,0,.36-.18l.48-.6a.82.82,0,0,0,.2-.58V54.39a.93.93,0,0,0-.2-.64l-.44-.52A.59.59,0,0,0,192.17,53Z"/><path class="cls-1" d="M199.07,54.93h2.38a1.94,1.94,0,0,1,.56.12v-1.2a1,1,0,0,0-.18-.6.51.51,0,0,0-.43-.25h-2.31a.55.55,0,0,1-.43-.25,1,1,0,0,1-.18-.6,1,1,0,0,1,.18-.6.51.51,0,0,1,.43-.25h2.31a1.55,1.55,0,0,1,1.28.74,3.11,3.11,0,0,1,.56,1.81l.15,6.35a1,1,0,0,1-.18.6.51.51,0,0,1-.43.25.53.53,0,0,1-.44-.25,1,1,0,0,1-.18-.6l-1,.85h-2.05a1.56,1.56,0,0,1-1.3-.75,3,3,0,0,1-.54-1.81v-1a3,3,0,0,1,.54-1.82A1.57,1.57,0,0,1,199.07,54.93Zm3,3.3,0-.71a1.13,1.13,0,0,0-.18-.61.52.52,0,0,0-.43-.24h-2.39a.51.51,0,0,0-.43.24,1,1,0,0,0-.18.61v.94a1,1,0,0,0,.18.6.51.51,0,0,0,.43.25h1.71Z"/><path class="cls-1" d="M207.89,51.3h2.78a1.51,1.51,0,0,1,1.15.54,1.55,1.55,0,0,1,.5,1.06.92.92,0,0,1-.18.59.53.53,0,0,1-.41.24.68.68,0,0,1-.53-.37c-.16-.24-.32-.36-.5-.36H208c-.27,0-.41.16-.41.47a.55.55,0,0,0,.27.5l3.23,2a2.2,2.2,0,0,1,.81,1,3.49,3.49,0,0,1,.31,1.49,3,3,0,0,1-.55,1.85,1.56,1.56,0,0,1-1.26.76h-2.45a1.67,1.67,0,0,1-1.18-.53,1.51,1.51,0,0,1-.55-1,1,1,0,0,1,.18-.6.53.53,0,0,1,.46-.25c.15,0,.32.12.49.36a.89.89,0,0,0,.76.36h2.26a.52.52,0,0,0,.45-.28,1.27,1.27,0,0,0,.18-.67.88.88,0,0,0-.4-.82l-3.26-2.06a1.87,1.87,0,0,1-.72-.84,2.7,2.7,0,0,1-.25-1.14,2.73,2.73,0,0,1,.45-1.57A1.31,1.31,0,0,1,207.89,51.3Z"/><path class="cls-1" d="M221.25,54.49v2.06a1,1,0,0,1-.19.59.51.51,0,0,1-.42.25h-4.29v.5a1.13,1.13,0,0,0,.26.74L217,59a.77.77,0,0,0,.55.31h3.12a.53.53,0,0,1,.42.25,1,1,0,0,1,0,1.2.51.51,0,0,1-.42.25h-3.2a1.37,1.37,0,0,1-.67-.19,1.75,1.75,0,0,1-.52-.38l-.54-.67a2.17,2.17,0,0,1-.42-.79,2.79,2.79,0,0,1-.17-.93V54.2a3.2,3.2,0,0,1,.18-.9,2.5,2.5,0,0,1,.47-.88l.5-.55a1.48,1.48,0,0,1,1.11-.57h1.7a1.58,1.58,0,0,1,1.22.75l.45.6A2.92,2.92,0,0,1,221.25,54.49Zm-4.89-.13v1.32h3.69V54.49a1.1,1.1,0,0,0-.21-.72l-.36-.44A.7.7,0,0,0,219,53h-1.52a.69.69,0,0,0-.52.27l-.35.42A.88.88,0,0,0,216.36,54.36Z"/><path class="cls-1" d="M233,60.2V47.62h4.3a1.55,1.55,0,0,1,1.28.76,3.05,3.05,0,0,1,.54,1.81v3.18a3.06,3.06,0,0,1-.53,1.8,1.57,1.57,0,0,1-1.29.75h-3.08V60.2a1,1,0,0,1-.17.6.5.5,0,0,1-.87,0A1,1,0,0,1,233,60.2Zm1.22-6h3.08a.51.51,0,0,0,.43-.25,1,1,0,0,0,.18-.6V50.19a1,1,0,0,0-.18-.6.51.51,0,0,0-.43-.25h-3.08Z"/><path class="cls-1" d="M241.94,60.2V52.15a1,1,0,0,1,.18-.61.52.52,0,0,1,.43-.26.53.53,0,0,1,.43.25,1.05,1.05,0,0,1,.18.62v1.06l1-1.18a1.66,1.66,0,0,1,1.2-.73h.88a1.55,1.55,0,0,1,1.29.75,3,3,0,0,1,.53,1.8v.45a1,1,0,0,1-.17.62.49.49,0,0,1-.86,0,1,1,0,0,1-.18-.6v-.47a1,1,0,0,0-.18-.6.5.5,0,0,0-.43-.25h-.78a.83.83,0,0,0-.57.37l-1.72,2.09V60.2a1,1,0,0,1-.18.6.52.52,0,0,1-.43.25.51.51,0,0,1-.43-.25A1,1,0,0,1,241.94,60.2Z"/><path class="cls-1" d="M257,54.36V58a3.27,3.27,0,0,1-.77,2.11,2.09,2.09,0,0,1-1.58,1h-1.43a2.1,2.1,0,0,1-1.59-1,3.42,3.42,0,0,1-.75-2.1V54.36a3.36,3.36,0,0,1,.74-2.09,2,2,0,0,1,1.6-1h1.43a2,2,0,0,1,1.58.95A3.33,3.33,0,0,1,257,54.36Zm-4.9.07v3.44a1.1,1.1,0,0,0,.24.74l.46.54a.52.52,0,0,0,.42.18h1.41a.72.72,0,0,0,.57-.31l.36-.45a1,1,0,0,0,.23-.68V54.45a1.06,1.06,0,0,0-.23-.74l-.42-.48a.65.65,0,0,0-.51-.25h-1.25a.78.78,0,0,0-.64.27l-.41.5A1,1,0,0,0,252.09,54.43Z"/><path class="cls-1" d="M263.63,64.69H261a.52.52,0,0,1-.43-.24,1.11,1.11,0,0,1,0-1.21A.52.52,0,0,1,261,63h2.63a.58.58,0,0,0,.45-.25l.41-.5a.79.79,0,0,0,.21-.58V59.08c-.57.8-1.12,1.2-1.66,1.2h-.93a1.66,1.66,0,0,1-1.3-.69l-.46-.57a2.2,2.2,0,0,1-.39-.77,3.41,3.41,0,0,1-.16-1V54.45a4.23,4.23,0,0,1,.16-1.13,2.29,2.29,0,0,1,.39-.8l.5-.59a1.6,1.6,0,0,1,1.26-.65H263a1.68,1.68,0,0,1,1.3.71l.42.49v-.33a1,1,0,0,1,.18-.6.53.53,0,0,1,.42-.25.53.53,0,0,1,.44.25,1,1,0,0,1,.18.6v9.52a2.81,2.81,0,0,1-.62,1.85l-.49.59a1.52,1.52,0,0,1-.53.41A1.49,1.49,0,0,1,263.63,64.69ZM262.94,53h-.82a.68.68,0,0,0-.51.29l-.38.44a1,1,0,0,0-.21.68v2.83a1.07,1.07,0,0,0,.23.65l.4.49a.55.55,0,0,0,.4.23h1a.71.71,0,0,0,.48-.31l1-1.14a1,1,0,0,0,.22-.67V55.19a1.12,1.12,0,0,0-.25-.76l-1-1.18A.64.64,0,0,0,262.94,53Z"/><path class="cls-1" d="M268.75,60.2V52.15a1,1,0,0,1,.18-.61.52.52,0,0,1,.43-.26.53.53,0,0,1,.43.25,1.05,1.05,0,0,1,.18.62v1.06L271,52a1.66,1.66,0,0,1,1.2-.73H273a1.55,1.55,0,0,1,1.29.75,3,3,0,0,1,.54,1.8v.45a1.05,1.05,0,0,1-.18.62.49.49,0,0,1-.86,0,1,1,0,0,1-.18-.6v-.47a1,1,0,0,0-.18-.6A.5.5,0,0,0,273,53h-.78a.83.83,0,0,0-.57.37L270,55.46V60.2a1,1,0,0,1-.18.6.52.52,0,0,1-.43.25.51.51,0,0,1-.43-.25A1,1,0,0,1,268.75,60.2Z"/><path class="cls-1" d="M279.5,54.93h2.38a1.94,1.94,0,0,1,.56.12v-1.2a1,1,0,0,0-.18-.6.51.51,0,0,0-.43-.25h-2.31a.56.56,0,0,1-.43-.25,1,1,0,0,1-.18-.6,1,1,0,0,1,.18-.6.51.51,0,0,1,.43-.25h2.31a1.55,1.55,0,0,1,1.28.74,3.11,3.11,0,0,1,.56,1.81l.15,6.35a1,1,0,0,1-.18.6.51.51,0,0,1-.43.25.53.53,0,0,1-.44-.25,1,1,0,0,1-.18-.6l-1,.85H279.5a1.56,1.56,0,0,1-1.3-.75,3,3,0,0,1-.54-1.81v-1a3,3,0,0,1,.54-1.82A1.57,1.57,0,0,1,279.5,54.93Zm3,3.3,0-.71a1.13,1.13,0,0,0-.18-.61.52.52,0,0,0-.43-.24H279.5a.51.51,0,0,0-.43.24,1,1,0,0,0-.18.61v.94a1,1,0,0,0,.18.6.51.51,0,0,0,.43.25h1.71Z"/><path class="cls-1" d="M286.48,60.2V52.15a1,1,0,0,1,.17-.6.51.51,0,0,1,.43-.25c.32,0,.51.22.59.65a1.43,1.43,0,0,1,1.13-.67,1.37,1.37,0,0,1,1.2.87,1.59,1.59,0,0,1,1.27-.87,1.22,1.22,0,0,1,1,.56,2.55,2.55,0,0,1,.44,1.43l.17,6.93a1,1,0,0,1-.18.6.51.51,0,0,1-.43.25.52.52,0,0,1-.43-.25,1.1,1.1,0,0,1-.19-.6l-.14-6.66q0-.54-.24-.54a.34.34,0,0,0-.25.15l-.72.85v6.2a1,1,0,0,1-.18.59.52.52,0,0,1-.43.24.51.51,0,0,1-.43-.25,1,1,0,0,1-.18-.6V53.43c0-.29-.09-.43-.26-.43a.3.3,0,0,0-.24.13l-.87,1v6a1.08,1.08,0,0,1-.17.6.51.51,0,0,1-.42.25.53.53,0,0,1-.44-.25A1,1,0,0,1,286.48,60.2Z"/><path class="cls-1" d="M295.41,60.2V52.15a1,1,0,0,1,.18-.6.51.51,0,0,1,.43-.25c.31,0,.51.22.59.65a1.41,1.41,0,0,1,1.13-.67,1.37,1.37,0,0,1,1.19.87,1.6,1.6,0,0,1,1.27-.87,1.2,1.2,0,0,1,1,.56,2.41,2.41,0,0,1,.44,1.43l.18,6.93a1,1,0,0,1-.18.6.49.49,0,0,1-.86,0,1.1,1.1,0,0,1-.19-.6l-.14-6.66q0-.54-.24-.54a.38.38,0,0,0-.26.15l-.72.85v6.2a1,1,0,0,1-.17.59.54.54,0,0,1-.43.24.51.51,0,0,1-.43-.25,1,1,0,0,1-.18-.6V53.43c0-.29-.09-.43-.27-.43a.29.29,0,0,0-.23.13l-.87,1v6a1,1,0,0,1-.18.6.48.48,0,0,1-.42.25.52.52,0,0,1-.43-.25A1,1,0,0,1,295.41,60.2Z"/><path class="cls-1" d="M310.61,54.49v2.06a1,1,0,0,1-.18.59.51.51,0,0,1-.42.25h-4.3v.5a1.09,1.09,0,0,0,.27.74l.35.41a.8.8,0,0,0,.55.31H310a.53.53,0,0,1,.42.25,1.09,1.09,0,0,1,0,1.2.52.52,0,0,1-.42.25H306.8a1.33,1.33,0,0,1-.66-.19,1.63,1.63,0,0,1-.52-.38l-.54-.67a2.17,2.17,0,0,1-.42-.79,2.79,2.79,0,0,1-.17-.93V54.2a3.2,3.2,0,0,1,.18-.9,2.35,2.35,0,0,1,.47-.88l.5-.55a1.45,1.45,0,0,1,1.11-.57h1.7a1.58,1.58,0,0,1,1.22.75l.45.6A2.93,2.93,0,0,1,310.61,54.49Zm-4.88-.13v1.32h3.68V54.49a1.1,1.1,0,0,0-.21-.72l-.35-.44a.72.72,0,0,0-.49-.31h-1.53a.67.67,0,0,0-.51.27l-.35.42A.88.88,0,0,0,305.73,54.36Z"/><path class="cls-1" d="M313.44,60.2V52.15a1.09,1.09,0,0,1,.17-.61.53.53,0,0,1,.43-.26.52.52,0,0,1,.43.25,1.05,1.05,0,0,1,.18.62v1.06l1-1.18a1.66,1.66,0,0,1,1.2-.73h.89a1.54,1.54,0,0,1,1.28.75,3,3,0,0,1,.54,1.8v.45a1.05,1.05,0,0,1-.18.62.49.49,0,0,1-.86,0,1,1,0,0,1-.18-.6v-.47a1,1,0,0,0-.17-.6.51.51,0,0,0-.43-.25h-.79a.79.79,0,0,0-.56.37l-1.73,2.09V60.2a1,1,0,0,1-.18.6.51.51,0,0,1-.43.25.52.52,0,0,1-.43-.25A1,1,0,0,1,313.44,60.2Z"/><path class="cls-2" d="M337.4,49.1l-4.93,11.69a.38.38,0,0,1-.37.26.58.58,0,0,1-.44-.23.8.8,0,0,1-.2-.58,1.63,1.63,0,0,1,.14-.66l4.93-11.68a.41.41,0,0,1,.38-.28.62.62,0,0,1,.44.22.84.84,0,0,1,.2.57A1.79,1.79,0,0,1,337.4,49.1Z"/><path class="cls-2" d="M346.34,49.1l-4.93,11.69a.39.39,0,0,1-.37.26.55.55,0,0,1-.44-.23.81.81,0,0,1-.21-.58,1.65,1.65,0,0,1,.15-.66l4.93-11.68a.41.41,0,0,1,.38-.28.6.6,0,0,1,.43.22.8.8,0,0,1,.21.57A1.79,1.79,0,0,1,346.34,49.1Z"/><path class="cls-1" d="M358.16,59.87l2.44-11.62c.1-.42.3-.63.61-.63s.5.18.57.54L364.2,60a1.13,1.13,0,0,1,0,.25,1,1,0,0,1-.17.6.49.49,0,0,1-.4.25c-.32,0-.52-.2-.6-.61l-.48-2.31H359.8l-.53,2.47a.59.59,0,0,1-.18.31.56.56,0,0,1-.35.14.5.5,0,0,1-.44-.25,1,1,0,0,1-.18-.62A1.15,1.15,0,0,1,358.16,59.87Zm3-8.32-1,4.86h2.05Z"/><path class="cls-1" d="M366.91,60.2V52.15a1,1,0,0,1,.17-.6.51.51,0,0,1,.43-.25c.32,0,.51.22.6.65a1.4,1.4,0,0,1,1.12-.67,1.37,1.37,0,0,1,1.2.87,1.59,1.59,0,0,1,1.27-.87,1.22,1.22,0,0,1,1,.56,2.55,2.55,0,0,1,.44,1.43l.17,6.93a1,1,0,0,1-.18.6.51.51,0,0,1-.42.25.53.53,0,0,1-.44-.25,1.1,1.1,0,0,1-.19-.6l-.14-6.66q0-.54-.24-.54a.36.36,0,0,0-.25.15l-.72.85v6.2a1,1,0,0,1-.18.59.5.5,0,0,1-.86,0,1,1,0,0,1-.18-.6V53.43c0-.29-.09-.43-.26-.43a.3.3,0,0,0-.24.13l-.87,1v6a1.08,1.08,0,0,1-.17.6.51.51,0,0,1-.42.25.53.53,0,0,1-.44-.25A1,1,0,0,1,366.91,60.2Z"/><path class="cls-1" d="M377.8,54.93h2.38a2.06,2.06,0,0,1,.57.12l0-1.2a1,1,0,0,0-.17-.6.52.52,0,0,0-.43-.25h-2.31a.53.53,0,0,1-.43-.25,1,1,0,0,1-.18-.6,1,1,0,0,1,.18-.6.5.5,0,0,1,.43-.25h2.3a1.56,1.56,0,0,1,1.29.74,3.11,3.11,0,0,1,.55,1.81l.15,6.35a1,1,0,0,1-.18.6.51.51,0,0,1-.42.25.51.51,0,0,1-.44-.25,1,1,0,0,1-.18-.6l-1,.85H377.8a1.57,1.57,0,0,1-1.3-.75,3,3,0,0,1-.53-1.81v-1a3.1,3.1,0,0,1,.53-1.82A1.58,1.58,0,0,1,377.8,54.93Zm3,3.3,0-.71a1,1,0,0,0-.18-.61.51.51,0,0,0-.42-.24h-2.4a.52.52,0,0,0-.43.24,1,1,0,0,0-.18.61v.94a1,1,0,0,0,.18.6.54.54,0,0,0,.43.25h1.71Z"/><path class="cls-1" d="M389.19,61.05H388a1.57,1.57,0,0,1-1.29-.75,3,3,0,0,1-.55-1.79V53h-.62a.52.52,0,0,1-.43-.24,1.09,1.09,0,0,1-.17-.61,1,1,0,0,1,.17-.6.51.51,0,0,1,.43-.25h.64V49.22a1,1,0,0,1,.18-.6.5.5,0,0,1,.43-.25.55.55,0,0,1,.42.25,1,1,0,0,1,.18.6V51.3h2.44a.53.53,0,0,1,.43.25,1,1,0,0,1,.18.6,1,1,0,0,1-.18.6.51.51,0,0,1-.43.25h-2.45v5.51a1,1,0,0,0,.18.59.54.54,0,0,0,.44.25h1.19c.32,0,.53-.24.64-.73s.31-.73.61-.73a.5.5,0,0,1,.44.25,1.08,1.08,0,0,1,.17.62,2.68,2.68,0,0,1-.52,1.53A1.53,1.53,0,0,1,389.19,61.05Z"/><path class="cls-1" d="M400,54.49v2.06a1,1,0,0,1-.18.59.51.51,0,0,1-.43.25h-4.29v.5a1.09,1.09,0,0,0,.27.74l.35.41a.8.8,0,0,0,.55.31h3.12a.53.53,0,0,1,.43.25,1.09,1.09,0,0,1,0,1.2.54.54,0,0,1-.43.25h-3.2a1.4,1.4,0,0,1-.67-.19,1.69,1.69,0,0,1-.51-.38l-.54-.67A2.34,2.34,0,0,1,394,59a3.06,3.06,0,0,1-.17-.93V54.2a3.29,3.29,0,0,1,.19-.9,2.49,2.49,0,0,1,.46-.88l.51-.55a1.45,1.45,0,0,1,1.11-.57h1.7a1.56,1.56,0,0,1,1.21.75l.46.6A2.93,2.93,0,0,1,400,54.49Zm-4.88-.13v1.32h3.68V54.49a1.1,1.1,0,0,0-.21-.72l-.35-.44a.74.74,0,0,0-.49-.31H396.2a.66.66,0,0,0-.51.27l-.36.42A.92.92,0,0,0,395.1,54.36Z"/><path class="cls-1" d="M405.69,59.33l2-1.81V52.15a1,1,0,0,1,.18-.61.49.49,0,0,1,.86,0,1,1,0,0,1,.18.61V60.2a1,1,0,0,1-.18.6.54.54,0,0,1-.43.25.51.51,0,0,1-.43-.25,1,1,0,0,1-.18-.6v-.66l-1.05,1a1.87,1.87,0,0,1-1.26.55h-.56a1.56,1.56,0,0,1-1.28-.73,3.16,3.16,0,0,1-.57-1.77l-.18-6.4a.93.93,0,0,1,.17-.59.55.55,0,0,1,.44-.26.52.52,0,0,1,.42.25,1.1,1.1,0,0,1,.19.6l.16,6.27c0,.61.27.91.75.91Z"/><path class="cls-1" d="M411.74,60.2V52.15a1,1,0,0,1,.18-.61.52.52,0,0,1,.43-.26.53.53,0,0,1,.43.25,1.05,1.05,0,0,1,.18.62v1.06L414,52a1.62,1.62,0,0,1,1.19-.73H416a1.57,1.57,0,0,1,1.29.75,3,3,0,0,1,.53,1.8v.45a1.13,1.13,0,0,1-.17.62.51.51,0,0,1-.43.25.5.5,0,0,1-.43-.25,1,1,0,0,1-.18-.6v-.47a1,1,0,0,0-.18-.6A.51.51,0,0,0,416,53h-.78a.83.83,0,0,0-.57.37L413,55.46V60.2a1,1,0,0,1-.19.6.49.49,0,0,1-.85,0A1,1,0,0,1,411.74,60.2Z"/><path class="cls-1" d="M429.62,60.2V47.62h4.3a1.56,1.56,0,0,1,1.28.76,3.05,3.05,0,0,1,.54,1.81v3.18a3.06,3.06,0,0,1-.53,1.8,1.57,1.57,0,0,1-1.29.75h-3.08V60.2a1,1,0,0,1-.17.6.5.5,0,0,1-.87,0A1,1,0,0,1,429.62,60.2Zm1.22-6h3.08a.52.52,0,0,0,.43-.25,1,1,0,0,0,.18-.6V50.19a1,1,0,0,0-.18-.6.52.52,0,0,0-.43-.25h-3.08Z"/><path class="cls-1" d="M438.54,60.2V48.47a1,1,0,0,1,.17-.58.49.49,0,0,1,.86,0,1,1,0,0,1,.18.6v4.29l1-.89a1.9,1.9,0,0,1,1.18-.59h.75a1.56,1.56,0,0,1,1.28.74,3.16,3.16,0,0,1,.56,1.81l.15,6.35a1,1,0,0,1-.17.6.53.53,0,0,1-.44.25.47.47,0,0,1-.42-.26,1,1,0,0,1-.18-.59l-.16-6.37a1,1,0,0,0-.18-.6.53.53,0,0,0-.44-.25H442a.76.76,0,0,0-.5.25l-1.73,1.58V60.2a1,1,0,0,1-.18.6.5.5,0,0,1-.43.25.52.52,0,0,1-.43-.25A1,1,0,0,1,438.54,60.2Z"/><path class="cls-1" d="M453.6,54.36V58a3.33,3.33,0,0,1-.77,2.11,2.09,2.09,0,0,1-1.58,1h-1.43a2.1,2.1,0,0,1-1.59-1,3.43,3.43,0,0,1-.76-2.1V54.36a3.42,3.42,0,0,1,.74-2.09,2.06,2.06,0,0,1,1.61-1h1.43a2,2,0,0,1,1.58.95A3.38,3.38,0,0,1,453.6,54.36Zm-4.9.07v3.44a1.1,1.1,0,0,0,.24.74l.46.54a.52.52,0,0,0,.42.18h1.41a.69.69,0,0,0,.56-.31l.37-.45a1,1,0,0,0,.23-.68V54.45a1.06,1.06,0,0,0-.23-.74l-.42-.48a.66.66,0,0,0-.51-.25H450a.77.77,0,0,0-.63.27l-.41.5A1,1,0,0,0,448.7,54.43Z"/><path class="cls-1" d="M460.69,61.05h-1.22a1.57,1.57,0,0,1-1.29-.75,3,3,0,0,1-.54-1.79V53H457a.52.52,0,0,1-.43-.24,1,1,0,0,1-.18-.61,1,1,0,0,1,.18-.6.51.51,0,0,1,.43-.25h.63V49.22a1,1,0,0,1,.18-.6.51.51,0,0,1,.43-.25.53.53,0,0,1,.42.25,1,1,0,0,1,.19.6V51.3h2.44a.55.55,0,0,1,.43.25,1,1,0,0,1,.18.6,1,1,0,0,1-.18.6.52.52,0,0,1-.43.25h-2.46v5.51a1,1,0,0,0,.19.59.52.52,0,0,0,.43.25h1.19c.32,0,.54-.24.64-.73s.31-.73.62-.73a.5.5,0,0,1,.43.25,1,1,0,0,1,.17.62,2.74,2.74,0,0,1-.51,1.53A1.55,1.55,0,0,1,460.69,61.05Z"/><path class="cls-1" d="M471.47,54.36V58a3.32,3.32,0,0,1-.76,2.11,2.12,2.12,0,0,1-1.59,1H467.7a2.07,2.07,0,0,1-1.59-1,3.37,3.37,0,0,1-.76-2.1V54.36a3.36,3.36,0,0,1,.74-2.09,2,2,0,0,1,1.61-1h1.42a2.06,2.06,0,0,1,1.59.95A3.37,3.37,0,0,1,471.47,54.36Zm-4.89.07v3.44a1.15,1.15,0,0,0,.23.74l.46.54a.52.52,0,0,0,.43.18h1.41a.72.72,0,0,0,.56-.31l.37-.45a1,1,0,0,0,.22-.68V54.45a1.06,1.06,0,0,0-.22-.74l-.43-.48a.63.63,0,0,0-.5-.25h-1.26a.78.78,0,0,0-.64.27l-.41.5A1,1,0,0,0,466.58,54.43Z"/><path class="cls-1" d="M478.11,64.69h-2.63a.54.54,0,0,1-.43-.24,1.16,1.16,0,0,1,0-1.21.54.54,0,0,1,.43-.24h2.63a.58.58,0,0,0,.45-.25l.41-.5a.79.79,0,0,0,.21-.58V59.08c-.57.8-1.12,1.2-1.66,1.2h-.93a1.67,1.67,0,0,1-1.3-.69l-.46-.57a2.2,2.2,0,0,1-.38-.77,3.11,3.11,0,0,1-.16-1V54.45a3.86,3.86,0,0,1,.16-1.13,2.29,2.29,0,0,1,.38-.8l.5-.59a1.61,1.61,0,0,1,1.26-.65h.87a1.68,1.68,0,0,1,1.3.71l.42.49v-.33a1,1,0,0,1,.18-.6.53.53,0,0,1,.43-.25.52.52,0,0,1,.43.25,1,1,0,0,1,.19.6v9.52a2.87,2.87,0,0,1-.62,1.85l-.5.59a1.52,1.52,0,0,1-.53.41A1.49,1.49,0,0,1,478.11,64.69ZM477.42,53h-.82a.7.7,0,0,0-.51.29l-.38.44a1,1,0,0,0-.21.68v2.83a1,1,0,0,0,.24.65l.39.49a.55.55,0,0,0,.4.23h1a.67.67,0,0,0,.48-.31l1-1.14a1,1,0,0,0,.22-.67V55.19a1.12,1.12,0,0,0-.25-.76l-1-1.18A.63.63,0,0,0,477.42,53Z"/><path class="cls-1" d="M483.24,60.2V52.15a1,1,0,0,1,.17-.61.52.52,0,0,1,.43-.26.53.53,0,0,1,.43.25,1.05,1.05,0,0,1,.18.62v1.06l1-1.18a1.66,1.66,0,0,1,1.2-.73h.89a1.54,1.54,0,0,1,1.28.75,3,3,0,0,1,.54,1.8v.45a1.05,1.05,0,0,1-.18.62.49.49,0,0,1-.86,0,1,1,0,0,1-.18-.6v-.47a1,1,0,0,0-.17-.6.51.51,0,0,0-.43-.25h-.79a.79.79,0,0,0-.56.37l-1.73,2.09V60.2a1,1,0,0,1-.18.6.49.49,0,0,1-.86,0A1,1,0,0,1,483.24,60.2Z"/><path class="cls-1" d="M494,54.93h2.38a2.06,2.06,0,0,1,.57.12l0-1.2a1,1,0,0,0-.18-.6.5.5,0,0,0-.43-.25H494a.53.53,0,0,1-.42-.25,1,1,0,0,1-.18-.6,1,1,0,0,1,.17-.6.52.52,0,0,1,.43-.25h2.31a1.58,1.58,0,0,1,1.29.74,3.18,3.18,0,0,1,.55,1.81l.15,6.35a1,1,0,0,1-.18.6.51.51,0,0,1-.43.25.53.53,0,0,1-.44-.25,1,1,0,0,1-.18-.6l-1,.85H494a1.57,1.57,0,0,1-1.3-.75,3,3,0,0,1-.54-1.81v-1a3,3,0,0,1,.54-1.82A1.57,1.57,0,0,1,494,54.93Zm3,3.3,0-.71a1,1,0,0,0-.18-.61.52.52,0,0,0-.43-.24H494a.52.52,0,0,0-.43.24,1,1,0,0,0-.18.61v.94a1,1,0,0,0,.18.6.52.52,0,0,0,.43.25h1.71Z"/><path class="cls-1" d="M502.34,60.08v3.76a1.05,1.05,0,0,1-.18.62.51.51,0,0,1-.43.25.54.54,0,0,1-.44-.25,1.05,1.05,0,0,1-.18-.62V51.74a1,1,0,0,1,.18-.6.5.5,0,0,1,.87,0,1,1,0,0,1,.18.6v.54c.59-.91,1.17-1.37,1.74-1.37h.28a1.56,1.56,0,0,1,1.19.66l1,1.23a3.13,3.13,0,0,1,.66,2.05V57.5a3.24,3.24,0,0,1-.71,2.11l-1,1.19a1.52,1.52,0,0,1-1.25.63H504a1.43,1.43,0,0,1-1.2-.69Zm1.71-.37h.31a.69.69,0,0,0,.48-.32l.94-1.16a1,1,0,0,0,.24-.71V54.78a1.08,1.08,0,0,0-.27-.72l-1-1.22a.51.51,0,0,0-.38-.22H504c-.14,0-.31.16-.53.47l-.9,1.25a1.24,1.24,0,0,0-.24.75v2.17a1.29,1.29,0,0,0,.27.77l.87,1.22C503.7,59.56,503.89,59.71,504.05,59.71Z"/><path class="cls-1" d="M510,60.2V48.47a.93.93,0,0,1,.18-.58.51.51,0,0,1,.43-.25.53.53,0,0,1,.43.25,1,1,0,0,1,.18.6v4.29l1-.89a1.92,1.92,0,0,1,1.19-.59h.75a1.58,1.58,0,0,1,1.28.74,3.16,3.16,0,0,1,.55,1.81l.15,6.35a.91.91,0,0,1-.17.6.51.51,0,0,1-.43.25.5.5,0,0,1-.43-.26,1.06,1.06,0,0,1-.18-.59l-.15-6.37a1.1,1.1,0,0,0-.19-.6.51.51,0,0,0-.43-.25h-.68a.78.78,0,0,0-.51.25l-1.72,1.58V60.2a1,1,0,0,1-.18.6.49.49,0,0,1-.86,0A1,1,0,0,1,510,60.2Z"/><path class="cls-1" d="M525.09,54.49v2.06a1,1,0,0,1-.18.59.51.51,0,0,1-.42.25H520.2v.5a1.13,1.13,0,0,0,.26.74l.36.41a.77.77,0,0,0,.55.31h3.12a.53.53,0,0,1,.42.25,1.09,1.09,0,0,1,0,1.2.51.51,0,0,1-.42.25h-3.2a1.37,1.37,0,0,1-.67-.19,1.75,1.75,0,0,1-.52-.38l-.54-.67a2.17,2.17,0,0,1-.42-.79,2.79,2.79,0,0,1-.17-.93V54.2a3.2,3.2,0,0,1,.18-.9,2.5,2.5,0,0,1,.47-.88l.5-.55a1.48,1.48,0,0,1,1.11-.57h1.7a1.58,1.58,0,0,1,1.22.75l.45.6A2.93,2.93,0,0,1,525.09,54.49Zm-4.88-.13v1.32h3.69V54.49a1.1,1.1,0,0,0-.21-.72l-.36-.44a.7.7,0,0,0-.49-.31h-1.52a.69.69,0,0,0-.52.27l-.35.42A.88.88,0,0,0,520.21,54.36Z"/><path class="cls-1" d="M527.92,60.2V52.15a1,1,0,0,1,.18-.61.51.51,0,0,1,.43-.26.55.55,0,0,1,.43.25,1.13,1.13,0,0,1,.17.62v1.06l1-1.18a1.66,1.66,0,0,1,1.2-.73h.89a1.57,1.57,0,0,1,1.29.75,3.06,3.06,0,0,1,.53,1.8v.45a1.05,1.05,0,0,1-.18.62.5.5,0,0,1-.43.25.52.52,0,0,1-.43-.25,1,1,0,0,1-.17-.6v-.47a1,1,0,0,0-.18-.6.51.51,0,0,0-.43-.25h-.79c-.17,0-.35.12-.56.37l-1.73,2.09V60.2a1,1,0,0,1-.18.6.51.51,0,0,1-.42.25.5.5,0,0,1-.43-.25A1,1,0,0,1,527.92,60.2Z"/></g></g></svg>