<svg xmlns="http://www.w3.org/2000/svg" viewBox="0 0 436 436"><defs><style>.cls-1{fill:none;stroke:#000;stroke-miterlimit:10;stroke-width:7px;}.cls-2{font-size:32px;fill:#b31f24;}.cls-2,.cls-3,.cls-6,.cls-7{font-family:LeagueGothic-Regular, League Gothic;}.cls-3{font-size:34px;letter-spacing:0.45em;}.cls-3,.cls-6,.cls-7{fill:#024428;}.cls-4{letter-spacing:0.45em;}.cls-5{letter-spacing:0.43em;}.cls-6{font-size:46px;letter-spacing:0.55em;}.cls-7{font-size:24px;letter-spacing:0.2em;}.cls-8{letter-spacing:0.19em;}.cls-9{letter-spacing:0.2em;}</style></defs><g id="Layer_2" data-name="Layer 2"><g id="Design_Elements" data-name="Design Elements"><path class="cls-1" d="M95.24,212.77a122.76,122.76,0,0,1,245.52,0"/><circle class="cls-1" cx="218" cy="218" r="214.5" transform="matrix(1, 0, 0, 1, -0.27, 0.27)"/></g><g id="_YOUR_TEXT_HERE_" data-name="[YOUR TEXT HERE]"><text class="cls-2" transform="translate(77.26 154.56) rotate(-65.43)">S</text><text class="cls-2" transform="translate(90.07 130.19) rotate(-55.21)">T</text><text class="cls-2" transform="matrix(0.7, -0.71, 0.71, 0.7, 106.5, 109.1)">E</text><text class="cls-2" transform="translate(126.08 91.37) rotate(-35.07)">V</text><text class="cls-2" transform="matrix(0.91, -0.42, 0.42, 0.91, 149.66, 76.69)">E</text><text class="cls-2" transform="translate(174.13 66.89) rotate(-14.32)">N</text><text class="cls-2" transform="translate(202.87 61.33) rotate(-4.71)"> </text><text class="cls-2" transform="translate(224.48 60.64) rotate(4.5)">P</text><text class="cls-2" transform="translate(252.04 64.31) rotate(15.13)">A</text><text class="cls-2" transform="translate(278.49 73.01) rotate(25.34)">T</text><text class="cls-2" transform="matrix(0.81, 0.58, -0.58, 0.81, 301.98, 85.72)">R</text><text class="cls-2" transform="matrix(0.7, 0.71, -0.71, 0.7, 323.88, 103.44)">I</text><text class="cls-2" transform="translate(339.02 120.35) rotate(54.67)">C</text><text class="cls-2" transform="matrix(0.42, 0.91, -0.91, 0.42, 353.75, 143.7)">K</text><text class="cls-3" transform="translate(121.46 196.92)">CR<tspan class="cls-4" x="54.64" y="0">E</tspan><tspan class="cls-5" x="80.44" y="0">A</tspan><tspan x="107.71" y="0">TIVE</tspan></text><text class="cls-6" transform="translate(89.62 264.65)">STUDIOS</text><text class="cls-7" transform="translate(111.08 320.73)">DEV | PH<tspan class="cls-8" x="92.23" y="0">O</tspan><tspan class="cls-9" x="105.29" y="0">TO | VIDEO</tspan></text><text class="cls-2" transform="translate(139.03 381.44) rotate(23.98)">B</text><text class="cls-2" transform="translate(168.5 392.57) rotate(14.84)">I</text><text class="cls-2" transform="translate(193.77 397.86) rotate(5.87)">S</text><text class="cls-2" transform="translate(224.74 399.36) rotate(-3.99)">H</text><text class="cls-2" transform="translate(256.72 395.33) rotate(-14.06)">O</text><text class="cls-2" transform="translate(286.68 386.02) rotate(-24.04)">P</text></g></g></svg>