<?xml version="1.0" encoding="utf-8"?>
<!-- Generator: Adobe Illustrator 25.4.1, SVG Export Plug-In . SVG Version: 6.00 Build 0)  -->
<svg version="1.1" id="Layer_1" xmlns="http://www.w3.org/2000/svg" xmlns:xlink="http://www.w3.org/1999/xlink" x="0px" y="0px"
	 viewBox="0 0 146.4 245.4" style="enable-background:new 0 0 146.4 245.4;" xml:space="preserve">
<style type="text/css">
	.st0{fill:none;stroke:#F2F2F2;stroke-width:2;stroke-miterlimit:10;}
	.st1{fill:#F2F2F2;}
	.st2{font-family:'Verdana';}
	.st3{font-size:36.1px;}
</style>
<g>
	<path class="st0" d="M129.4,241.4l2.8-116.2c-59.6-13.7-113.8,0-113.8,0l0,0l-2.9,116c0,1.3,1,2.4,2.4,2.5c0,0,0,0,0,0h109
		C128.3,243.7,129.3,242.7,129.4,241.4z"/>
	<path class="st0" d="M23,124.2l-21.4-72c-0.7-2.4,0.5-4.9,2.8-5.8c12.5-5,25.6-8.6,38.9-10.7c0.8-0.1,1.6-0.5,2.3-1
		c18.2-15.2,34.2-17.7,56.9-0.1c0.6,0.5,1.4,0.8,2.2,1c13,2.1,25.8,5.8,38,10.8c2.2,0.9,3.4,3.2,2.9,5.5l-16.2,72.4"/>
	<line class="st0" x1="36.6" y1="79" x2="46.8" y2="120.1"/>
	<line class="st0" x1="113.8" y1="79" x2="103.6" y2="120.1"/>
	<ellipse class="st0" cx="74.4" cy="34.2" rx="29.8" ry="30.5"/>
	<path class="st0" d="M16.4,205.3c0,0,58.8-16.7,113.8,0"/>
	<path class="st0" d="M17.4,165.2c0,0,58.8-16.7,113.8,0"/>
	<text transform="matrix(1.43 0 0 1 55.9728 150.0007)" class="st1 st2 st3">S</text>
	<text transform="matrix(1.43 0 0 1 58.0137 193.3541)" class="st1 st2 st3">P</text>
	<text transform="matrix(1.43 0 0 1 57.7609 236.631)" class="st1 st2 st3">B</text>
</g>
</svg>
