<svg xmlns="http://www.w3.org/2000/svg" viewBox="0 0 522.63 488.4"><defs><style>.cls-1{fill:#c7b299;}.cls-1,.cls-4{stroke:#c7b299;}.cls-1,.cls-2,.cls-3,.cls-4,.cls-5,.cls-6,.cls-7{stroke-miterlimit:10;}.cls-2{fill:#002968;stroke:#002968;}.cls-3,.cls-5{fill:#1a1a1a;}.cls-3{stroke:#1b1464;}.cls-4,.cls-6{fill:#4d4d4d;}.cls-5,.cls-6{stroke:#333;}.cls-7{fill:none;stroke:red;}</style></defs><g id="Layer_2" data-name="Layer 2"><g id="Layer_2-2" data-name="Layer 2"><polygon class="cls-1" points="301.3 201.16 236.13 153.5 221.13 121.5 319.13 183.5 301.3 201.16"/><path class="cls-2" d="M358.09,484.51l-3.07,1.2a32.4,32.4,0,0,1-41.83-18.38l-51.3-131.72L129.7,369.28c-13.54,3.44-30.82.51-37.44-13.19L76.44,323.32a32.65,32.65,0,0,1-.08-35.79L178.65,131.65a32.66,32.66,0,0,1,45.08-9.35l23.46,15.4a32.68,32.68,0,0,1,13.95,34.08L233,152.39a26.77,26.77,0,0,0-37.13,6.82l-1.12,1.62A26.78,26.78,0,0,0,201.6,198l31,21.36-41.41,63.1,82.47-21a34.61,34.61,0,0,1,41.95,24.92l60.89,156.36A32.39,32.39,0,0,1,358.09,484.51Z"/><path class="cls-3" d="M191.87,281.35l-.71,1.07,82.47-21a34.61,34.61,0,0,1,41.95,24.92l60.89,156.36a32.39,32.39,0,0,1-18.38,41.82l-3.07,1.2a32.4,32.4,0,0,1-41.83-18.38l-51.3-131.72L129.7,369.28c-13.54,3.44-30.82.51-37.44-13.19L76.44,323.32a32.81,32.81,0,0,1-4-27.41"/><ellipse class="cls-1" cx="294.63" cy="67.5" rx="63.5" ry="67"/><path class="cls-4" d="M356.49,52.29l-.36.21L241.57,57.12C209,62.55,182,60.63,180.51,52.56c-1.52-8.39,25-20.23,59.28-26.45,1.89-.34,3.77-.67,5.63-1C257.07,10.1,274.79.5,294.63.5,324.74.5,350,22.61,356.49,52.29Z"/><path class="cls-3" d="M225.1,480.51l-2.36,1.21a32,32,0,0,1-11.22,3.36h-.08a34.48,34.48,0,0,1-5.31.41h-162a35,35,0,0,1,0-70H152.31l-22.74-40,67.56-17,19,33.38,23.07,45A32.51,32.51,0,0,1,225.1,480.51Z"/><rect class="cls-5" x="45.64" y="64.15" width="92.27" height="209.63" rx="12" transform="translate(107.19 -22.7) rotate(33.11)"/><path class="cls-6" d="M102.22,77.4h68.27a12,12,0,0,1,12,12v34.4a0,0,0,0,1,0,0H90.22a0,0,0,0,1,0,0V89.4a12,12,0,0,1,12-12Z" transform="translate(77.09 -58.15) rotate(33.11)"/><path class="cls-1" d="M419.71,153.92l-99.66,99.66a21.87,21.87,0,0,1-30.84,0l-.33-.34-85.46-61.17a20.52,20.52,0,0,1-4.73-28.55l1.68-2.36a20.53,20.53,0,0,1,28.55-4.73l73.79,52.81,86.16-86.16a21.81,21.81,0,0,1,30.84,30.84Z"/><path class="cls-2" d="M235.61,215.11l-32.19-23a20.52,20.52,0,0,1-4.73-28.55l1.68-2.36a20.53,20.53,0,0,1,28.55-4.73l30.47,21.8"/><path class="cls-5" d="M522.13,89.5v63h-70l-6-6h-7V163a6.57,6.57,0,0,1-6.55,6.55H413.06l11.56-13.12A28.27,28.27,0,1,0,382.2,119l-12.07,13.69V84.05a6.57,6.57,0,0,1,6.55-6.55h7.45V66.82a5.33,5.33,0,0,0,5.32-5.32h59.36a5.33,5.33,0,0,1,5.32,5.32v7.36a5.33,5.33,0,0,1-5.32,5.32H437.28a6.55,6.55,0,0,1,1.85,4.55V95.5h6v-.3l5.7-5.7Z"/><line class="cls-7" x1="507.13" y1="89.5" x2="507.13" y2="153.5"/><path class="cls-1" d="M468.13,175.5,338.45,247.28l65.68-68.78,2.82-1.35a13.59,13.59,0,0,0,3.08.35h22.2a14,14,0,0,0,13.9-13.9v-3.2a13,13,0,0,0-.13-1.88l2.13-1,27,1C476.13,163.42,473.56,171.7,468.13,175.5Z"/></g></g></svg>