<svg xmlns="http://www.w3.org/2000/svg" viewBox="0 0 388.11 387.91"><defs><style>.cls-1{fill:#603813;stroke:#603813;stroke-width:0.75px;}.cls-1,.cls-2,.cls-3{stroke-miterlimit:10;}.cls-2{fill:#666;}.cls-2,.cls-3{stroke:#999;}.cls-3{fill:#999;}</style></defs><g id="Layer_2" data-name="Layer 2"><g id="Layer_2-2" data-name="Layer 2"><rect class="cls-1" x="88.55" y="213.5" width="318.91" height="70" rx="7.22" transform="translate(248.35 -102.58) rotate(45)"/><rect class="cls-1" x="45.88" y="11.75" width="12.73" height="70" rx="1.87" transform="translate(48.36 -23.25) rotate(45)"/><rect class="cls-2" x="43.9" y="7.48" width="99.7" height="172.53" rx="7.22" transform="translate(93.75 -38.83) rotate(45)"/><path class="cls-3" d="M387.5,95.5a73,73,0,0,1-87.43,71.57c-3.74-.75-8.09-1.21-11.09,1.8-5.78,5.82-19.06,19.21-24.87,25a7.25,7.25,0,0,1-10.22,0l-37.28-37.28a7.25,7.25,0,0,1,0-10.22l.93-.94,17.13-17.12c3.58-3.58,9.08-7.62,9.31-13.16.08-1.92-.84-4.08-1.2-6A74,74,0,0,1,241.5,95.5,73,73,0,0,1,352.87,33.38c1.36.85,4.36,2.27,4,4.28-.23,1.28-2.5,2.07-3.57,2.68l-9.18,5.31L320.77,59.13l-16.9,9.76-1.49.86a15.32,15.32,0,0,0-5.59,20.86l13.67,23.68a15.33,15.33,0,0,0,20.87,5.59l11.43-6.6L366,99.84,377,93.54,381.33,91c1.49-.86,3.15-2.64,5-1.77S387.5,93.79,387.5,95.5Z"/><path class="cls-3" d="M21.63,313.75A73,73,0,0,1,109.7,243c3.74.78,8.09,1.28,11.11-1.7,5.83-5.76,19.16-19.1,25-24.86a7.26,7.26,0,0,1,10.22.09L193,254.12a7.26,7.26,0,0,1-.09,10.22l-.95.92c-3.24,3.18-14,13.86-17.21,17-3.61,3.55-9.15,7.54-9.43,13.07-.1,1.93.8,4.1,1.15,6A73,73,0,0,1,55.7,376.18c-1.36-.86-4.34-2.31-4-4.31.25-1.29,2.53-2.05,3.6-2.66L64.56,364,88,350.72l17-9.6,1.5-.85a15.31,15.31,0,0,0,5.78-20.81l-13.45-23.8A15.32,15.32,0,0,0,78,289.88l-11.49,6.5L43.13,309.6l-11,6.21-4.4,2.48c-1.5.85-3.18,2.62-5,1.72S21.61,315.46,21.63,313.75Z"/></g></g></svg>