<svg xmlns="http://www.w3.org/2000/svg" viewBox="0 0 312.5 35.22"><defs><style>.cls-1{fill:#a3bcbf;}.cls-2{fill:#731b0e;}</style></defs><g id="Layer_2" data-name="Layer 2"><g id="Layer_2-2" data-name="Layer 2"><path class="cls-1" d="M41.86,22.51a5.91,5.91,0,0,1-1.27,3.73,11.79,11.79,0,0,1-3.36,2.87,23.71,23.71,0,0,1-4.74,2.09,45.21,45.21,0,0,1-5.35,1.39,51.29,51.29,0,0,1-5.25.78c-1.69.17-3.18.25-4.46.25-.8,0-1.63,0-2.51-.08a13.75,13.75,0,0,1-2.43-.37,4.85,4.85,0,0,1-1.87-.88,2,2,0,0,1-.74-1.58,1,1,0,0,1,.27-.74,2,2,0,0,1,.63-.45,4.14,4.14,0,0,1,.8-.25,4.57,4.57,0,0,1,.76-.08c.22,0,.64,0,1.25-.06l2-.12,2-.13c.66,0,1.12-.06,1.39-.06.09,0,.61-.06,1.58-.18s2.16-.31,3.55-.56,2.9-.55,4.51-.92a34.17,34.17,0,0,0,4.47-1.33,15.11,15.11,0,0,0,3.42-1.76,2.77,2.77,0,0,0,1.38-2.22c0-.76-.54-1.37-1.62-1.82A19.27,19.27,0,0,0,32,18.94q-2.68-.4-6.09-.65L19,17.77c-2.36-.17-4.68-.39-7-.63a47.78,47.78,0,0,1-6.09-1,13.9,13.9,0,0,1-4.3-1.7A3.11,3.11,0,0,1,0,11.73,5,5,0,0,1,1.19,8.59a13.38,13.38,0,0,1,3.2-2.81A27.41,27.41,0,0,1,9,3.4a43.31,43.31,0,0,1,5.54-1.82A49.31,49.31,0,0,1,20.44.41,41.85,41.85,0,0,1,26.08,0a26,26,0,0,1,4,.29,12.67,12.67,0,0,1,3.2.88,5.59,5.59,0,0,1,2.13,1.54A3.4,3.4,0,0,1,36.16,5a2.38,2.38,0,0,1-.61,1.64A5.51,5.51,0,0,1,34,7.81a9.51,9.51,0,0,1-2.07.82,21.23,21.23,0,0,1-2.19.49c-.72.13-1.34.21-1.87.27s-.91.08-1.13.08l-.55,0-.39,0a1,1,0,0,1-.7-.47,1.43,1.43,0,0,1-.28-.76.63.63,0,0,1,.28-.45,2.24,2.24,0,0,1,1.11-.37A12.21,12.21,0,0,0,27.92,7c.74-.2,1.47-.43,2.2-.68A15.3,15.3,0,0,0,32,5.56c.53-.26.8-.49.8-.68s-.21-.33-.63-.41a10.28,10.28,0,0,0-1.79-.12c-1.15,0-2.59.09-4.32.26s-3.59.44-5.54.78-3.9.74-5.84,1.19A48.1,48.1,0,0,0,9.41,8.1,18.48,18.48,0,0,0,5.6,9.88c-1,.63-1.46,1.27-1.46,1.93s.54,1,1.62,1.29a25.94,25.94,0,0,0,4.27.76q2.64.29,6,.51c2.27.15,4.58.34,6.93.55s4.66.5,6.93.84a38.22,38.22,0,0,1,6,1.38,13.46,13.46,0,0,1,4.26,2.15A4,4,0,0,1,41.86,22.51Z"/><path class="cls-1" d="M69.58,9.88a4.85,4.85,0,0,1-1.52,3.53,12.12,12.12,0,0,1-3.87,2.52A23.14,23.14,0,0,1,59,17.42a33.14,33.14,0,0,1-5.62.5,2.67,2.67,0,0,1-.51-.06,2.23,2.23,0,0,1-.58-.21,1.57,1.57,0,0,1-.47-.43,1.2,1.2,0,0,1-.2-.7,1,1,0,0,1,.3-.78,2.29,2.29,0,0,1,.76-.45,4.2,4.2,0,0,1,.93-.22,6.43,6.43,0,0,1,.8-.06,24.41,24.41,0,0,0,3.91-.35,24.42,24.42,0,0,0,3.92-1,11.89,11.89,0,0,0,3-1.47,2.38,2.38,0,0,0,1.21-1.89A1.73,1.73,0,0,0,65.54,9a9,9,0,0,0-2.4-1.15,27.89,27.89,0,0,0-3.49-.9c-1.31-.26-2.68-.48-4.12-.66s-2.89-.31-4.36-.41-2.89-.14-4.23-.14c-1.91,0-3.77.08-5.57.24s-3.45.35-4.94.56-2.8.4-3.92.57a17.39,17.39,0,0,1-2.46.27,3,3,0,0,1-1.6-.43,1.39,1.39,0,0,1-.69-1.25,1.14,1.14,0,0,1,.78-1A19.68,19.68,0,0,1,32.88,3a48,48,0,0,1,5.91-1.17,64.25,64.25,0,0,1,8.81-.51,58.75,58.75,0,0,1,9.12.64,31.36,31.36,0,0,1,6.93,1.78A12.67,12.67,0,0,1,68,6.42,4.88,4.88,0,0,1,69.58,9.88Zm-15.38,22a2,2,0,0,1-.33,1.19,1.22,1.22,0,0,1-1.06.45,2.16,2.16,0,0,1-1.62-1.09,12.82,12.82,0,0,1-1.5-2.89c-.46-1.2-.91-2.56-1.33-4.08s-.81-3.07-1.17-4.67-.67-3.16-.94-4.68-.51-2.87-.7-4.08-.34-2.17-.45-2.91S44.94,8,44.94,8a1.74,1.74,0,0,1,.24-1,.72.72,0,0,1,.58-.33.87.87,0,0,1,.78.39,2.36,2.36,0,0,1,.32.8c.36,1.59.79,3.23,1.29,4.94s1,3.39,1.56,5,1.07,3.25,1.62,4.78,1,2.93,1.46,4.18.76,2.33,1,3.22A7.86,7.86,0,0,1,54.2,31.86Z"/><path class="cls-1" d="M94.71,26.65a5.86,5.86,0,0,1-1.64,4.26,11.19,11.19,0,0,1-4.18,2.63,24.8,24.8,0,0,1-5.64,1.31,49.94,49.94,0,0,1-6,.37q-1.35,0-3-.12t-3.42-.39c-1.17-.18-2.3-.41-3.41-.68a18.93,18.93,0,0,1-2.95-1,6.94,6.94,0,0,1-2.09-1.32,2.25,2.25,0,0,1-.8-1.66c0-.52.15-.84.45-1a3.51,3.51,0,0,1,1.4-.21c.3,0,.78.05,1.45.13l2.32.28L70,29.7c1,.15,2,.28,3.07.39s2,.21,3,.29,1.81.12,2.55.12c1.23,0,2.59-.07,4.1-.22a27.84,27.84,0,0,0,4.22-.74,12,12,0,0,0,3.32-1.35,2.46,2.46,0,0,0,1.35-2.11,3.09,3.09,0,0,0-.8-1.91,11.42,11.42,0,0,0-2.15-2,30.15,30.15,0,0,0-3.09-2c-1.17-.65-2.38-1.28-3.65-1.86s-2.54-1.14-3.82-1.64-2.46-.94-3.58-1.29A8.51,8.51,0,0,0,73.21,15c-.37-.07-.7-.15-1-.23a2.24,2.24,0,0,1-.74-.37,2.34,2.34,0,0,1-.61-.74,1,1,0,0,1-.17-.49.45.45,0,0,1,.27-.45,2.52,2.52,0,0,1,.62-.18,3.91,3.91,0,0,1,.67-.07,1.53,1.53,0,0,0,.45,0,5,5,0,0,1,.8,0,14.84,14.84,0,0,0,1.62-.1,13.63,13.63,0,0,0,2-.39,6.41,6.41,0,0,0,2-.9c.68-.47,1-.94,1-1.44a1.74,1.74,0,0,0-1-1.41,11,11,0,0,0-2.67-1.11,32.29,32.29,0,0,0-3.67-.8c-1.35-.22-2.69-.39-4-.53S66.16,5.5,65,5.43s-2.11-.1-2.82-.1c-1,0-2.27,0-3.67.1s-2.77.15-4.08.25l-3.49.26q-1.52.13-1.92.21a1.78,1.78,0,0,1-1.36-.53,1.54,1.54,0,0,1-.49-1,1.78,1.78,0,0,1,.47-.92,4.69,4.69,0,0,1,1.87-1.17,19,19,0,0,1,3.93-1,41.42,41.42,0,0,1,6.69-.43,73.76,73.76,0,0,1,8.77.45,41.74,41.74,0,0,1,6.23,1.17,16.79,16.79,0,0,1,4.1,1.66,10.19,10.19,0,0,1,2.4,1.9,5.38,5.38,0,0,1,1.13,1.89A5.65,5.65,0,0,1,83,9.84a2.8,2.8,0,0,1-.43,1.46,6.59,6.59,0,0,1-1.06,1.33,8.16,8.16,0,0,1-1.4,1.08,6,6,0,0,1-1.41.68q1.14.54,2.79,1.17c1.09.42,2.23.89,3.4,1.39s2.35,1.08,3.53,1.7a18.63,18.63,0,0,1,3.15,2.12,10.32,10.32,0,0,1,2.26,2.62A6.33,6.33,0,0,1,94.71,26.65Zm-21.24,1A2.22,2.22,0,0,1,73.14,29,1.32,1.32,0,0,1,72,29.4a1.4,1.4,0,0,1-1.19-.56,1.37,1.37,0,0,1-.23-.45.82.82,0,0,0-.14-.31c-.17-.41-.38-1-.64-1.86s-.54-1.81-.84-2.93-.59-2.35-.88-3.69-.55-2.71-.8-4.1-.44-2.78-.59-4.14a35.53,35.53,0,0,1-.23-3.86,2,2,0,0,1,.23-.76c.15-.31.33-.47.55-.47a.85.85,0,0,1,.61.31,1.08,1.08,0,0,1,.33.64c.06.32.22,1,.49,2s.61,2.22,1,3.58.8,2.83,1.25,4.37.87,3,1.25,4.41.7,2.64.94,3.73A12.07,12.07,0,0,1,73.47,27.63Z"/><path class="cls-2" d="M124.9,27.24c-.16.78-.36,1.88-.58,3.28s-.38,2.49-.46,3.27a53.4,53.4,0,0,1-7.65.64,21.67,21.67,0,0,1-6-.81A14.86,14.86,0,0,1,105.05,31a10.36,10.36,0,0,1-3.33-4.35,15,15,0,0,1-1-5.61,15.23,15.23,0,0,1,1.36-6.51A12.77,12.77,0,0,1,106,9.65a16.06,16.06,0,0,1,5.55-2.76,23.67,23.67,0,0,1,6.25-.83,43.65,43.65,0,0,1,7.33.76l0,1.68c0,.74.07,1.54.12,2.42l.14,2.29c-1.56-.38-2.83-.63-3.8-.77a20.2,20.2,0,0,0-2.69-.2A10.59,10.59,0,0,0,114,13.33a8.14,8.14,0,0,0-3.41,3.14A8.74,8.74,0,0,0,109.38,21a7.19,7.19,0,0,0,1,3.92,7,7,0,0,0,2.82,2.52,9.72,9.72,0,0,0,4.37.89,23.23,23.23,0,0,0,3.09-.23A36.28,36.28,0,0,0,124.9,27.24Z"/><path class="cls-2" d="M128.68,33.91q.39-3.52.6-6.35t.39-6.55q.15-3.72.24-7.85T130,6.58c1.66,0,3,.06,4,.06s2.37,0,3.9-.09,3-.09,4.49-.09c1.7,0,3.23.07,4.56.2a11.17,11.17,0,0,1,2.73.58,7.73,7.73,0,0,1,2.07,1.07,6.73,6.73,0,0,1,1.41,1.41,6.21,6.21,0,0,1,.87,1.83,8.23,8.23,0,0,1,.31,2.26,9.23,9.23,0,0,1-.34,2.51,7.6,7.6,0,0,1-1.07,2.2,7.14,7.14,0,0,1-1.85,1.78A16.34,16.34,0,0,1,148,21.83l1,2.55c.29.7.61,1.42.94,2.16l2.69,5.86c.12.26.33.76.64,1.51-2.21,0-3.69,0-4.45,0-1,0-2.53,0-4.72,0-.21-.7-.6-2-1.16-3.87-.23-.79-.42-1.39-.58-1.82-.32-.95-.8-2.28-1.42-4l-2.07-5.67a12,12,0,0,0,2.12.2,7.73,7.73,0,0,0,2.66-.44,3.59,3.59,0,0,0,1.8-1.36A3.5,3.5,0,0,0,146.1,15a2.5,2.5,0,0,0-.46-1.51,2.76,2.76,0,0,0-1.45-1,10.86,10.86,0,0,0-3.06-.32l-1.45,0-1.75.05q-.26,4.11-.45,10c-.14,3.94-.22,7.81-.26,11.6l-4.35,0C132.1,33.87,130.7,33.88,128.68,33.91Z"/><path class="cls-2" d="M157.43,33.91c.33-3.45.58-6.33.73-8.65s.31-5.41.46-9.26.24-6.4.24-7.66l0-1.76q4.72,0,11.43,0c4.13,0,7.76,0,10.91,0l0,.66c0,.16,0,.74-.1,1.73l-.12,2.18c0,.46,0,.94,0,1.41-2.57-.1-4.74-.16-6.48-.16h-3.9l-3.15.09-.24,4.61c1.57,0,3.41.06,5.5.06q1.13,0,6-.14c-.13,1.71-.26,3.74-.38,6.11-2.31,0-4.08,0-5.32,0-1.84,0-3.9,0-6.18.14l-.24,4.86h2.3L173,28l4.14-.1c.61,0,1.64-.07,3.08-.16q-.24,3-.4,6.13-4.87,0-10.71,0l-8.81,0Z"/><path class="cls-2" d="M180.89,33.91,182.56,31l10.35-19.5L194,9.34c.32-.64.77-1.56,1.34-2.76,2.35,0,4.07,0,5.15,0,1.88,0,3.62,0,5.22,0l2.92,8.35,6,16.05,1.16,2.93-4.21,0c-1.12,0-2.77,0-4.95,0-.59-2.21-1.43-4.8-2.54-7.77H194q-1.74,3.52-3.6,7.77l-4.57,0C184.79,33.87,183.15,33.88,180.89,33.91Zm15.5-13.6h6.22q-2.31-7-2.54-7.77c-.88,2-1.62,3.56-2.24,4.81Z"/><path class="cls-2" d="M223.93,33.91q1-9.73,1.2-21.43l-8.52.23.1-2.23c0-1.18.09-2.49.12-3.9q5.68,0,13.25,0l4.94,0h4.8l2.6,0-.12,2c-.05,1.05-.09,1.92-.1,2.61s0,1.2,0,1.56c-2.86-.15-5.21-.23-7.07-.23h-1.4q-.3,3.54-.46,6.54-.23,4.29-.34,8.34t-.12,6.55l-4.24,0Z"/><path class="cls-2" d="M244,33.91q1.16-16.08,1.16-24.75l0-2.58c2.34,0,3.9,0,4.69,0l4.3,0q-.36,4.5-.58,8.53c-.19,3.73-.32,7.23-.4,10.48s-.12,6-.12,8.32l-4.1,0Z"/><path class="cls-2" d="M265.16,33.91l-.74-2.45-4.89-14.07L255.69,6.58c1.81,0,3.42,0,4.84,0,.86,0,2.22,0,4.08,0q.45,1.78.72,2.7c.24.8.69,2.25,1.36,4.35l2.95,9.48c.29,1,.66,2.27,1.08,3.86l.92-2.3,7-15.31.41-1c.16-.36.4-1,.73-1.82,1.94,0,3.5,0,4.67,0,.74,0,2.19,0,4.37,0q-2,3.81-4.62,8.89l-6.91,13.69q-1,2-2.24,4.75c-2.24,0-3.84,0-4.8,0S267.64,33.88,265.16,33.91Z"/><path class="cls-2" d="M288.76,33.91c.33-3.45.58-6.33.73-8.65s.31-5.41.46-9.26.23-6.4.23-7.66l0-1.76q4.72,0,11.43,0c4.13,0,7.76,0,10.91,0l0,.66c0,.16,0,.74-.1,1.73l-.12,2.18c0,.46,0,.94,0,1.41-2.58-.1-4.74-.16-6.49-.16h-3.89l-3.15.09-.25,4.61c1.58,0,3.42.06,5.51.06q1.13,0,6-.14c-.13,1.71-.26,3.74-.38,6.11-2.31,0-4.08,0-5.32,0-1.84,0-3.91,0-6.19.14l-.23,4.86h2.3L304.3,28l4.14-.1c.61,0,1.64-.07,3.08-.16q-.24,3-.4,6.13-4.89,0-10.71,0l-8.81,0Z"/></g></g></svg>